<?xml version="1.0" encoding="utf-8"?>
<!-- Svg Vector Icons : http://www.onlinewebfonts.com/icon -->
<!DOCTYPE svg PUBLIC "-//W3C//DTD SVG 1.1//EN" "http://www.w3.org/Graphics/SVG/1.1/DTD/svg11.dtd">
<svg version="1.1" xmlns="http://www.w3.org/2000/svg" xmlns:xlink="http://www.w3.org/1999/xlink" x="0px" y="0px" viewBox="0 0 1000 1000" enable-background="new 0 0 1000 1000" xml:space="preserve">
<metadata> Svg Vector Icons : http://www.onlinewebfonts.com/icon </metadata>
<g><g transform="translate(0.000000,511.000000) scale(0.100000,-0.100000)"><path d="M1939.9,4928.7c14.6-95.2-2.4-105-70.8-44c-41.5,36.6-48.8,36.6-68.4,7.3c-14.7-19.5-24.4-61.1-24.4-92.8c0-51.3-7.3-56.2-73.3-41.5c-73.3,17.1-75.7,14.7-58.6-53.7c26.9-109.9,24.4-114.8-31.8-124.6c-31.7-4.9-56.2-19.5-56.2-31.7c0-48.8-4.9-61.1-39.1-97.7c-19.5-22-31.7-75.7-29.3-122.1c7.3-70.8-2.4-83.1-46.4-90.4c-44-7.3-56.2-24.4-56.2-83c0-48.8-29.3-107.5-85.5-173.4c-46.4-53.7-85.5-114.8-85.5-131.9c0-39.1,109.9-41.5,258.9-4.9c92.8,24.4,117.2,22,149-9.8c31.7-31.7,34.2-53.7,7.3-161.2c-17.1-70.8-22-163.6-14.7-207.6c19.6-100.2,171-246.7,280.9-271.1c75.7-17.1,87.9-12.2,239.4,97.7c83,58.6,122.1-149,83-427.4c-17.1-114.8-39.1-346.8-51.3-515.3c-14.7-249.1-36.6-359-107.5-576.4c-63.5-200.2-92.8-344.4-109.9-559.3c-14.7-161.2-41.5-351.7-61.1-425c-61.1-217.4-95.2-600.8-83-903.6c14.6-324.8,29.3-363.9,283.3-732.7c224.7-324.8,293.1-407.9,429.8-515.3c109.9-87.9,129.4-95.3,278.4-95.3c151.4,0,163.6-4.9,266.2-100.1c61.1-53.8,190.5-136.8,290.6-183.2c97.7-44,205.1-109.9,234.5-146.5c31.7-34.2,117.2-95.3,190.5-131.9c210-107.4,337-210,415.2-337c39.1-65.9,114.8-156.3,171-205.2c56.2-51.3,97.7-112.3,97.7-141.6c0-100.1,70.8-190.5,200.3-254c68.4-34.2,146.5-63.5,171-63.5c58.6,0,166.1-114.8,166.1-175.9c0-131.9-351.7-959.8-456.7-1074.6c-48.8-56.2-241.8-58.6-407.9-9.8c-80.6,24.4-136.8,29.3-175.8,14.6c-31.7-12.2-58.6-26.9-58.6-34.2c0-4.9,61.1-29.3,134.3-51.3c73.3-24.4,134.3-51.3,134.3-61.1s-107.5-24.4-236.9-31.7c-288.2-19.5-388.3-46.4-483.6-127l-73.3-63.5l280.9,14.6c153.9,7.3,381,4.9,500.7-4.9c210-19.5,219.8-22,227.1-80.6c17.1-124.6,53.7-114.8,214.9,58.6l156.3,168.5l268.7-12.2c146.5-4.9,268.7-4.9,268.7,2.5c0,9.8-61.1,36.6-139.2,63.5c-85.5,29.3-156.3,75.7-188,117.2l-48.8,65.9l58.6,234.5c56.2,227.1,58.6,232,119.7,217.4c34.2-7.3,156.3-19.5,271.1-26.8c249.1-14.7,271.1-22,254-68.4c-19.6-51.3-222.2-175.8-337.1-207.6c-90.3-24.4-234.4-134.3-234.4-178.3c0-36.6,144.1-19.6,249.1,26.9c351.7,153.8,415.2,190.5,486,261.3c92.8,95.3,280.9,151.4,361.5,107.5c29.3-14.6,83-90.4,122.1-166.1c73.3-144.1,136.8-219.8,163.6-192.9c9.8,7.3-17.1,117.2-58.6,241.8c-39.1,124.6-80.6,295.5-87.9,376.1l-17.1,151.4l92.8-34.2c51.3-17.1,141.7-31.8,202.7-31.8H6673l-129.4,46.4c-149,53.7-310.2,171-356.6,266.2c-36.6,68.4-48.8,214.9-44,451.8l4.9,144.1l276-17.1c212.5-12.2,288.2-7.3,334.6,19.6c410.3,227.1,681.4,395.6,727.8,449.4c200.3,234.5,249.1,295.5,368.8,464c278.4,400.5,368.8,671.6,368.8,1116.1c0,195.4-7.3,232-61.1,310.2c-117.2,173.4-112.3,202.7,102.6,486l190.5,254l9.8,273.5c7.3,258.9,9.8,273.5,63.5,285.8c29.3,7.3,100.1,63.5,156.3,124.6c95.2,105,127,195.4,75.7,212.5c-17.1,4.9-29.3,109.9-34.2,254c-2.4,173.4-17.1,266.2-43.9,305.3c-19.6,31.7-41.5,136.8-51.3,229.6c-9.8,146.5-4.9,180.7,34.2,229.6c58.6,70.8,63.5,251.5,7.3,305.3c-34.2,36.6-31.8,53.7,26.9,205.1c39.1,100.2,61.1,200.3,56.2,249.1c-7.3,73.3-17.1,85.5-70.8,85.5l-63.5-2.4l36.6,102.6c39.1,102.6,36.6,105-34.2,207.6c-39.1,56.2-87.9,136.8-109.9,178.3c-22,41.5-87.9,112.3-144.1,158.7c-56.2,44-139.2,134.3-188,200.3c-46.4,65.9-100.1,119.7-117.2,119.7c-19.6,0-36.6,24.4-41.5,56.2c-7.3,48.8-22,53.7-158.8,61.1c-139.2,7.3-153.9,12.2-168.5,68.4c-17.1,68.4-119.7,156.3-183.2,156.3c-180.7,0-534.9-246.7-635-442c-61.1-122.1-161.2-500.7-183.2-691.2c-12.2-102.6-31.8-158.8-61.1-180.7c-39.1-26.9-44-56.2-31.8-256.4c14.7-224.7,14.7-224.7-65.9-346.8c-46.4-65.9-144.1-183.2-219.8-258.9c-234.5-234.5-483.6-295.5-1252.9-300.4c-600.8-2.5-595.9-4.9-859.7,315c-222.3,268.7-227.1,278.4-454.3,793.7c-315,708.3-571.5,1016-1059.9,1257.8c-241.8,119.7-261.3,151.4-131.9,214.9c90.4,46.4,114.8,105,65.9,158.8c-22,24.4-41.5,63.5-41.5,85.5c0,56.2-39.1,51.3-117.2-9.8l-65.9-51.3l-7.3,100.1c-9.8,119.7-39.1,127-78.2,22l-31.7-80.6l-14.7,70.8c-19.6,97.7-68.4,107.4-87.9,17.1c-19.5-95.3-58.6-95.3-146.5-2.5C1942.3,5036.2,1922.8,5033.7,1939.9,4928.7z M5889-2788.9c17.1-48.8-46.4-403-109.9-600.8c-26.9-90.4-83-202.7-124.6-251.6l-70.8-87.9h-266.2h-266.2l22,68.4c83,283.3,222.2,488.5,390.8,576.4c100.1,53.8,214.9,151.4,324.8,280.9C5837.7-2742.5,5869.5-2737.6,5889-2788.9z"/></g></g>
</svg>