<svg height="512pt" viewBox="-57 0 511 512" width="512pt" xmlns="http://www.w3.org/2000/svg"><path d="m382.101562 7.40625h-176.707031c-4.152343 0-7.605469 3.195312-7.914062 7.335938-1.683594 22.492187-4.726563 53.386718-10.046875 82.722656-7.414063 40.914062-32.101563 61.457031-40.8125 71.769531 38.621094 23.128906 110.117187 59.566406 208.546875 83.121094-.066407-1.441407-.128907-2.890625-.199219-4.335938 0 0 29.097656-128.945312 35.0625-232.222656.261719-4.554687-3.367188-8.390625-7.929688-8.390625zm0 0" fill="#ffcdbe"/><path d="m155.34375 346.359375c9.125 10.78125 19.300781 17.820313 20.097656 35.191406 1.011719 22.0625 3.199219 65.554688 6.71875 115.46875.292969 4.15625 3.75 7.386719 7.917969 7.386719h144.3125c3.949219 0 7.300781-2.898438 7.855469-6.808594 6.65625-46.78125 15.308594-125.980468 13.847656-214.308594-33.472656 4.039063-130.1875 19.007813-200.75 63.070313zm0 0" fill="#ffcdbe"/><path d="m211.703125 497.019531c-3.519531-49.917969-5.703125-93.40625-6.71875-115.472656-.429687-9.410156-4.34375-18.308594-10.914063-25.0625-5.152343-5.292969-11.695312-12.652344-18.296874-21.75-6.992188 3.632813-13.824219 7.5-20.429688 11.625h.003906c9.195313 10.863281 19.296875 17.851563 20.09375 35.1875 1.011719 22.066406 3.199219 65.554687 6.71875 115.472656.292969 4.15625 3.75 7.386719 7.917969 7.386719h29.542969c-4.167969 0-7.625-3.230469-7.917969-7.386719zm0 0" fill="#f7c1b3"/><path d="m146.621094 169.234375c6.054687 3.628906 12.921875 7.582031 20.570312 11.761719 5.449219-7.953125 11.296875-14.746094 16.765625-20.324219 17.023438-17.363281 28.683594-39.28125 33.023438-63.207031 5.316406-29.335938 8.359375-60.230469 10.042969-82.722656.308593-4.140626 3.761718-7.335938 7.914062-7.335938h-29.542969c-4.152343 0-7.605469 3.195312-7.914062 7.335938-1.683594 22.492187-4.726563 53.386718-10.046875 82.722656-7 38.617187-27.238282 55.132812-40.8125 71.769531zm0 0" fill="#f7c1b3"/><path d="m115.8125 249.054688c0 44.496093 24.566406 80.335937 41.984375 100.152343 72.902344-46.777343 177.574219-59.484375 198.359375-61.605469-.164062-12.78125-.535156-25.761718-1.15625-38.875-99.230469-22.722656-170.226562-59.753906-206.378906-81.808593-15.972656 18.164062-32.808594 45.898437-32.808594 82.136719zm0 0" fill="#63a1fc"/><path d="m177.859375 337.558594c-15.675781-20.792969-32.503906-51.679688-32.503906-88.503906 0-29.15625 10.902343-52.8125 23.480469-70.40625-7.625-4.21875-14.378907-8.171876-20.214844-11.730469-19.902344 22.289062-32.808594 50.984375-32.808594 82.136719 0 37.386718 17.359375 71.828124 41.988281 100.152343 6.460938-4.148437 13.175781-8.019531 20.058594-11.648437zm0 0" fill="#4188ff"/><path d="m61.328125 274.371094 22.527344-22.527344c1.511719-1.511719 1.511719-3.960938 0-5.472656l-22.527344-22.527344c-2.4375-2.4375-6.605469-.710938-6.605469 2.734375v45.054687c0 3.449219 4.167969 5.175782 6.605469 2.738282zm0 0" fill="#ff5155"/><path d="m69.132812 231.648438-7.804687-7.804688c-2.4375-2.4375-6.605469-.710938-6.605469 2.734375v45.054687c0 3.449219 4.167969 5.175782 6.605469 2.738282l7.804687-7.804688zm0 0" fill="#f24049"/><path d="m80.816406 372.683594 22.527344-22.527344c1.507812-1.511719 1.507812-3.960938 0-5.472656l-22.527344-22.527344c-2.4375-2.4375-6.605468-.710938-6.605468 2.738281v45.054688c0 3.449219 4.167968 5.171875 6.605468 2.734375zm0 0" fill="#ff5155"/><path d="m88.621094 329.964844-7.804688-7.804688c-2.4375-2.441406-6.605468-.710937-6.605468 2.734375v45.054688c0 3.449219 4.167968 5.171875 6.605468 2.738281l7.804688-7.804688zm0 0" fill="#f24049"/><path d="m80.816406 176.054688 22.527344-22.527344c1.507812-1.511719 1.507812-3.960938 0-5.472656l-22.527344-22.527344c-2.4375-2.4375-6.605468-.710938-6.605468 2.738281v45.054687c0 3.445313 4.167968 5.171876 6.605468 2.734376zm0 0" fill="#ff5155"/><path d="m88.621094 133.332031-7.804688-7.804687c-2.4375-2.4375-6.605468-.710938-6.605468 2.738281v45.054687c0 3.445313 4.167968 5.171876 6.605468 2.734376l7.804688-7.804688zm0 0" fill="#f24049"/><path d="m162.039062 202.464844c-3.820312-1.605469-8.214843.195312-9.816406 4.015625-.6875 1.636719-1.34375 3.300781-1.949218 4.941406-1.441407 3.886719.539062 8.199219 4.425781 9.640625.859375.316406 1.738281.46875 2.605469.46875 3.046874 0 5.914062-1.871094 7.03125-4.894531.535156-1.445313 1.113281-2.910157 1.722656-4.355469 1.601562-3.820312-.199219-8.214844-4.019532-9.816406zm0 0"/><path d="m150.082031 260.667969c4.113281 0 7.464844-3.320313 7.5-7.441407.011719-1.558593.058594-3.132812.136719-4.671874.214844-4.136719-2.964844-7.664063-7.101562-7.875-4.125-.214844-7.664063 2.964843-7.878907 7.101562-.089843 1.757812-.144531 3.546875-.15625 5.324219-.035156 4.144531 3.296875 7.527343 7.4375 7.5625zm0 0"/><path d="m161.953125 285.753906c-1.101563-3.992187-5.226563-6.335937-9.222656-5.234375-3.996094 1.101563-6.339844 5.230469-5.238281 9.226563.464843 1.679687.96875 3.382812 1.496093 5.058594 1.011719 3.199218 3.96875 5.246093 7.152344 5.246093.746094 0 1.507813-.113281 2.261719-.351562 3.949218-1.246094 6.140625-5.457031 4.894531-9.410157-.476563-1.5-.925781-3.027343-1.34375-4.535156zm0 0"/><path d="m27.484375 158.382812h39.179687v15.027344c0 10.171875 12.300782 15.152344 19.410157 8.042969l22.527343-22.53125c4.433594-4.429687 4.433594-11.644531 0-16.078125l-22.527343-22.527344c-7.148438-7.144531-19.410157-2.078125-19.410157 8.042969v15.023437h-39.179687c-4.140625 0-7.5 3.359376-7.5 7.503907 0 4.140625 3.359375 7.496093 7.5 7.496093zm54.179687-21.261718 13.765626 13.761718-13.765626 13.761719zm0 0"/><path d="m47.179688 271.726562c0 10.121094 12.265624 15.179688 19.410156 8.039063l22.527344-22.527344c4.429687-4.433593 4.429687-11.644531 0-16.078125l-22.527344-22.527344c-7.148438-7.148437-19.410156-2.078124-19.410156 8.039063v15.027344h-39.179688c-4.144531 0-7.5 3.359375-7.5 7.5 0 4.144531 3.355469 7.5 7.5 7.5h39.179688zm15-36.289062 13.761718 13.761719-13.761718 13.761719zm0 0"/><path d="m86.074219 316.945312c-7.148438-7.144531-19.410157-2.078124-19.410157 8.042969v15.023438h-39.179687c-4.140625 0-7.5 3.359375-7.5 7.503906 0 4.140625 3.359375 7.5 7.5 7.5h39.179687v15.027344c0 10.164062 12.292969 15.152343 19.410157 8.039062l22.527343-22.527343c4.433594-4.433594 4.433594-11.648438 0-16.082032zm-4.410157 44.332032v-27.523438l13.765626 13.761719zm0 0"/><path d="m383.613281 0h-179.632812c-7.273438 0-13.394531 5.683594-13.925781 12.9375-1.574219 21.394531-4.59375 53.210938-10.046876 83.285156-4.023437 22.207032-14.742187 42.710938-30.996093 59.289063-25.222657 25.730469-40.746094 57.886719-40.746094 93.636719 0 0-3.933594 56.363281 50.839844 112.660156 5.328125 5.480468 8.453125 12.644531 8.796875 20.175781 1.007812 21.929687 3.234375 66.292969 6.828125 117.027344.511719 7.28125 6.632812 12.988281 13.933593 12.988281h53.550782c4.144531 0 7.5-3.359375 7.5-7.5 0-4.144531-3.355469-7.5-7.5-7.5h-52.589844c-3.542969-50.175781-5.738281-93.980469-6.734375-115.703125-.515625-11.203125-5.144531-21.835937-13.035156-29.945313-.132813-.140624-.277344-.292968-.417969-.4375 63.847656-37.796874 148.667969-51.09375 179.246094-54.832031.46875 84.738281-8.09375 159.78125-13.957032 200.917969h-57.507812c-4.144531 0-7.5 3.355469-7.5 7.5 0 4.140625 3.355469 7.5 7.5 7.5h58.402344c6.902344 0 12.847656-5.152344 13.824218-11.984375 11.421876-79.703125 16.875-169.167969 13.019532-251.253906 1.578125-7.117188 11.214844-51.230469 20.050781-105.574219.664063-4.089844-2.113281-7.941406-6.199219-8.609375-4.085937-.660156-7.941406 2.113281-8.609375 6.203125-7.417969 45.644531-15.402343 83.984375-18.625 98.949219-88.554687-21.246094-153.636719-53.886719-188.703125-74.410157 17.992188-18.609374 29.882813-41.550781 34.390625-66.421874 5.488281-30.273438 8.554688-62.15625 10.175781-83.898438h177.578126c-1.507813 26.441406-4.707032 57.027344-9.507813 90.929688-.582031 4.101562 2.273437 7.894531 6.375 8.476562 4.101563.578125 7.894531-2.273438 8.476563-6.375 4.925781-34.785156 8.191406-66.167969 9.695312-93.277344.214844-3.820312-1.171875-7.605468-3.800781-10.382812-2.625-2.777344-6.324219-4.371094-10.148438-4.371094zm-224.34375 339.511719c-41.535156-50.386719-50.46875-111.289063-9.074219-162.777344 35.496094 21.039063 103.84375 55.910156 197.519532 78.097656.367187 8.765625.625 17.433594.789062 26.160157-30.414062 3.625-121.480468 17.441406-189.234375 58.519531zm0 0"/></svg>