<svg id="Capa_1" enable-background="new 0 0 512 512" height="512" viewBox="0 0 512 512" width="512" xmlns="http://www.w3.org/2000/svg"><g><path d="m494.5 108.809h-52.5c-4.143 0-7.5 3.358-7.5 7.5s3.357 7.5 7.5 7.5h52.5c1.379 0 2.5 1.122 2.5 2.5v19.163h-482v-19.163c0-1.378 1.121-2.5 2.5-2.5h138c4.442 0 8.68-1.668 11.932-4.698l34.237-31.91c.466-.433 1.071-.672 1.706-.672h105.25c.635 0 1.24.239 1.705.671l34.239 31.912c3.251 3.029 7.488 4.697 11.931 4.697h50.5c4.143 0 7.5-3.358 7.5-7.5s-3.357-7.5-7.5-7.5h-50.5c-.635 0-1.24-.239-1.705-.671l-34.239-31.912c-3.251-3.029-7.488-4.697-11.931-4.697h-105.25c-4.442 0-8.68 1.668-11.932 4.698l-34.237 31.91c-.466.433-1.071.672-1.706.672h-45.671v-19.495c0-6.893-5.607-12.5-12.5-12.5h-50.087c-6.893 0-12.5 5.607-12.5 12.5v19.494h-17.242c-9.649 0-17.5 7.851-17.5 17.5v296.663c0 9.649 7.851 17.5 17.5 17.5h128.409c4.143 0 7.5-3.358 7.5-7.5s-3.357-7.5-7.5-7.5h-50.909v-265h322v265h-236.091c-4.143 0-7.5 3.358-7.5 7.5s3.357 7.5 7.5 7.5h313.591c9.649 0 17.5-7.851 17.5-17.5v-296.662c0-9.65-7.851-17.5-17.5-17.5zm-444.758-16.995h45.087v16.994h-45.087zm30.258 333.658h-62.5c-1.379 0-2.5-1.122-2.5-2.5v-262.5h65zm414.5 0h-62.5v-265h65v262.5c0 1.378-1.121 2.5-2.5 2.5z"/><path d="m400.104 201.367c0-13.233-10.767-24-24-24s-24 10.767-24 24 10.767 24 24 24 24-10.766 24-24zm-33 0c0-4.962 4.037-9 9-9s9 4.038 9 9-4.037 9-9 9-9-4.037-9-9z"/><path d="m256 188.909c-57.38 0-104.063 46.683-104.063 104.063s46.683 104.063 104.063 104.063 104.063-46.683 104.063-104.063-46.683-104.063-104.063-104.063zm0 193.126c-49.109 0-89.063-39.954-89.063-89.063s39.953-89.063 89.063-89.063 89.063 39.954 89.063 89.063-39.954 89.063-89.063 89.063z"/><path d="m256 223.909c-8.251 0-16.327 1.442-24.003 4.287-3.884 1.439-5.865 5.755-4.426 9.639 1.438 3.883 5.751 5.865 9.639 4.426 6.002-2.225 12.324-3.353 18.79-3.353 29.811 0 54.063 24.252 54.063 54.063s-24.252 54.064-54.063 54.064-54.063-24.252-54.063-54.063c0-11.859 3.766-23.113 10.89-32.546 2.496-3.306 1.84-8.009-1.466-10.505-3.304-2.496-8.008-1.84-10.505 1.465-9.105 12.058-13.919 26.438-13.919 41.586 0 38.082 30.981 69.063 69.063 69.063s69.063-30.981 69.063-69.063-30.982-69.063-69.063-69.063z"/></g></svg>