<svg id="Layer_3" height="512" viewBox="0 0 512 512" width="512" xmlns="http://www.w3.org/2000/svg" data-name="Layer 3"><path d="m288 208h-96l-32 8v-208l32 8h192l32-8v208l-32-8h-24" fill="#90e3f5"/><path d="m160 176v40l32-8h192l32 8v-40z" fill="#232626" opacity=".1"/><g fill="#90e3f5"><path d="m40 512v-322a30 30 0 0 1 30-30h36a30 30 0 0 1 30 30v322"/><path d="m80 160-16-32h48l-16 32z"/><path d="m168 512v-80h288v80"/></g><path d="m384 360v72h-128v-24l-24-24v-152h152v112" fill="#f69038"/><path d="m216 88s-8-48 48-48h40s56 0 56 64v192c0 14.06-2.415 21.585 7.527 31.527l32.473 32.473h-67.546a44.454 44.454 0 0 1 -44.454-44.454v-131.546" fill="#076372"/><circle cx="480" cy="197" fill="#90e3f5" r="24"/><path d="m57.009 51.636 13.677-25.009 13.678 25.009 25.009 13.678-25.009 13.677-13.678 25.009-13.677-25.009-25.009-13.677z" fill="#f69038"/><path d="m216 88h42a30 30 0 0 1 30 30v66a0 0 0 0 1 0 0h-37.547a34.453 34.453 0 0 1 -34.453-34.453v-61.547a0 0 0 0 1 0 0z" fill="#f9ac78"/><path d="m264 232s0 56-24 64v60.3a43.7 43.7 0 0 1 -43.7 43.7h-132.016a20 20 0 0 1 -14.142-5.858l-18.142-18.142h-4a20 20 0 0 1 -20-20v-12h32l16 16h116a20 20 0 0 0 20-20v-78a30 30 0 0 1 30-30z" fill="#f9ac78"/><path d="m384 232h10a30 30 0 0 1 30 30v118a20 20 0 0 1 -20 20h-20z" fill="#f9ac78"/><path d="m478.142 353.858 25.858 14.142-25.858 14.142-14.142 25.858-14.142-25.858-25.858-14.142 25.858-14.142 14.142-25.858z" fill="#90e3f5"/><path d="m75.077 150.154 4.923 9.846h16l7.273-14.545z" fill="#5fcee0"/><path d="m392 432h64v80h-64z" fill="#232626" opacity=".1"/><path d="m480 165a32 32 0 1 0 32 32 32.036 32.036 0 0 0 -32-32zm0 48a16 16 0 1 1 16-16 16.018 16.018 0 0 1 -16 16z"/><path d="m28.161 58.295a8 8 0 0 0 0 14.037l22.953 12.554 12.553 22.953a8 8 0 0 0 14.038 0l12.553-22.953 22.953-12.554a8 8 0 0 0 0-14.037l-22.953-12.554-12.552-22.953a8 8 0 0 0 -14.038 0l-12.554 22.953zm35.867-2.82 6.659-12.175 6.658 12.175a8 8 0 0 0 3.18 3.18l12.175 6.658-12.175 6.66a8 8 0 0 0 -3.18 3.18l-6.658 12.174-6.659-12.175a8 8 0 0 0 -3.18-3.18l-12.176-6.659 12.175-6.659a8 8 0 0 0 3.181-3.179z"/><path d="m376 40h16v16h-16z"/><path d="m96 240h16v16h-16z"/><path d="m200 456h16v16h-16z"/><path d="m240 104h16v16h-16z"/><path d="m507.839 360.981-23.8-13.019-13.018-23.8a8 8 0 0 0 -14.038 0l-13.018 23.8-11.965 6.544v-92.506a38.043 38.043 0 0 0 -38-38h-26v-8h15.015l31.044 7.761a8 8 0 0 0 9.941-7.761v-208a8 8 0 0 0 -9.94-7.761l-31.045 7.761h-190.03l-31.045-7.761a8 8 0 0 0 -9.94 7.761v208a8 8 0 0 0 9.94 7.761l31.045-7.761h87.015v8h-58a38.043 38.043 0 0 0 -38 38v78a12.013 12.013 0 0 1 -12 12h-28v-162a38.043 38.043 0 0 0 -35.116-37.879l10.271-20.542a8 8 0 0 0 -7.155-11.579h-48a8 8 0 0 0 -7.155 11.578l10.271 20.542a38.043 38.043 0 0 0 -35.116 37.88v146h-24a8 8 0 0 0 -8 8v12a28.031 28.031 0 0 0 28 28h.686l3.314 3.314v124.686h16v-109.223a27.79 27.79 0 0 0 16.284 5.223h31.716v24h16v-24h16v104h16v-104h52.3a51.5 51.5 0 0 0 34.843-13.542l16.857 16.855v12.687h-80a8 8 0 0 0 -8 8v80h16v-72h272v72h16v-80a8 8 0 0 0 -8-8h-64v-16h12a28.035 28.035 0 0 0 27.961-26.528l12 6.565 13.018 23.8a8 8 0 0 0 14.038 0l13.018-23.8 23.8-13.019a8 8 0 0 0 0-14.037zm-131.839-120.981v84.687l-2.816-2.816c-5.755-5.755-5.64-9.308-5.33-18.8.069-2.1.146-4.487.146-7.07v-56.001zm-96-64h-29.547a26.483 26.483 0 0 1 -26.453-26.453v-53.547h34a22.025 22.025 0 0 1 22 22zm16 8v-66a38.043 38.043 0 0 0 -38-38h-34.34c.253-5.642 1.694-13.812 7.188-20.3 6.579-7.762 17.733-11.7 33.152-11.7h40.013a54.776 54.776 0 0 1 24.543 7.149c15.556 9.112 23.444 25.551 23.444 48.851v192c0 2.322-.07 4.471-.138 6.549-.335 10.272-.651 19.976 10.008 30.636l18.816 18.815h-48.232a36.5 36.5 0 0 1 -36.454-36.454zm-104 16a7.975 7.975 0 0 0 -1.94.239l-22.06 5.515v-187.508l22.06 5.515a7.975 7.975 0 0 0 1.94.239h192a7.975 7.975 0 0 0 1.94-.239l22.06-5.515v187.508l-22.06-5.515a7.975 7.975 0 0 0 -1.94-.239h-16v-96c0-22.692-6.48-40.648-19.26-53.368-14.427-14.359-32.727-17.655-40.74-18.409a8.023 8.023 0 0 0 -1.884-.223h-42.116c-20.339 0-35.6 5.841-45.36 17.361-12.924 15.256-11.177 35.052-10.64 39.2v60.988a42.5 42.5 0 0 0 42.453 42.451h29.547v8zm-92.944-64-8 16h-6.112l-8-16zm-29.056 32h36a22.025 22.025 0 0 1 22 22v162h-16v-64h-16v64h-36.687l-11.313-11.314v-150.686a22.025 22.025 0 0 1 22-22zm126.3 224h-132.016a11.922 11.922 0 0 1 -8.485-3.515l-18.142-18.142a8 8 0 0 0 -5.657-2.343h-4a12.013 12.013 0 0 1 -12-12v-4h20.687l13.657 13.657a8 8 0 0 0 5.656 2.343h116a28.031 28.031 0 0 0 28-28v-78a22.025 22.025 0 0 1 22-22h33.708c-.755 11.308-3.056 26.135-7.708 36.494v-20.494h-16v100.3a35.74 35.74 0 0 1 -35.7 35.7zm67.7 32v-16a8 8 0 0 0 -2.343-5.657l-20.457-20.459a51.363 51.363 0 0 0 6.8-25.584v-55.28c18.648-11.493 22.821-45.081 23.742-61.02h8.258v75.546a52.514 52.514 0 0 0 52.454 52.454h43.546v56zm152-44a12.013 12.013 0 0 1 -12 12h-12v-24h8a8 8 0 0 0 5.657-13.657l-13.657-13.657v-100.686h2a22.025 22.025 0 0 1 22 22zm58.3-4.876a8.006 8.006 0 0 0 -3.18 3.18l-7.12 13.024-7.123-13.028a8.006 8.006 0 0 0 -3.18-3.18l-13.025-7.12 13.025-7.124a8.006 8.006 0 0 0 3.18-3.18l7.123-13.024 7.123 13.024a8.006 8.006 0 0 0 3.18 3.18l13.025 7.124z"/></svg>