<?xml version="1.0" standalone="no"?>
<!DOCTYPE svg PUBLIC "-//W3C//DTD SVG 20010904//EN"
 "http://www.w3.org/TR/2001/REC-SVG-20010904/DTD/svg10.dtd">
<svg version="1.0" xmlns="http://www.w3.org/2000/svg"
 width="474.000000pt" height="316.000000pt" viewBox="0 0 474.000000 316.000000"
 preserveAspectRatio="xMidYMid meet">

<g transform="translate(0.000000,316.000000) scale(0.100000,-0.100000)"
fill="#000000" stroke="none">
<path d="M130 3143 c1 -32 28 -149 29 -126 0 12 6 25 11 28 6 3 10 13 10 22 0
30 29 53 56 43 17 -7 24 -6 23 3 -1 18 -17 54 -18 40 -1 -15 -31 -18 -31 -3 0
6 -18 10 -40 10 -32 0 -40 -4 -40 -17z"/>
<path d="M480 3142 c0 -10 8 -27 18 -38 10 -10 21 -27 25 -36 3 -10 14 -18 24
-18 14 0 15 -2 4 -9 -10 -7 -8 -12 10 -25 27 -18 24 -20 -17 -7 -16 5 -42 12
-58 16 l-29 6 7 -80 c3 -45 3 -81 -1 -81 -13 1 -122 18 -213 34 -47 8 -122 17
-168 21 l-82 7 0 -111 0 -111 25 0 c14 0 25 -3 26 -7 9 -89 22 -144 30 -132 5
8 10 -2 14 -27 10 -65 26 -89 65 -92 56 -6 81 -60 38 -84 -13 -7 -27 -11 -32
-10 -5 2 -6 -4 -3 -12 4 -11 -8 -18 -46 -27 -46 -11 -60 -13 -104 -18 -10 -1
-13 -240 -13 -1151 l0 -1150 331 0 c260 0 330 3 327 13 -6 16 -109 29 -126 15
-9 -8 -16 -6 -26 7 -9 13 -20 16 -39 11 -32 -8 -77 9 -77 29 0 8 -1 15 -2 16
-2 0 -25 2 -53 5 -55 6 -105 22 -105 35 0 9 8 12 135 40 l100 22 88 -37 c48
-20 94 -36 103 -36 8 0 22 -7 31 -15 14 -14 16 -14 27 0 8 12 10 2 8 -45 l-4
-60 70 0 c67 0 71 1 81 28 6 15 20 43 32 62 44 73 155 261 237 400 47 80 106
181 132 225 51 87 80 141 80 150 0 3 -10 0 -22 -6 -21 -11 -21 -10 4 32 l26
44 94 -3 c92 -4 135 -9 276 -33 51 -9 72 -17 72 -27 0 -13 -20 -92 -80 -314
-10 -36 -26 -81 -35 -98 -9 -18 -18 -55 -21 -83 -4 -54 -22 -137 -33 -149 -4
-4 -33 5 -66 21 -58 28 -59 29 -35 39 28 11 42 6 20 -8 -8 -6 -10 -10 -4 -10
6 0 23 11 38 25 15 14 22 25 17 25 -6 0 -8 7 -5 15 4 10 0 15 -13 15 -20 0
-48 -22 -73 -59 -10 -14 -25 -21 -49 -21 -82 0 -181 -58 -181 -106 0 -36 18
-64 40 -64 10 0 21 -4 24 -9 3 -5 15 -7 26 -4 31 8 55 -4 41 -21 -20 -24 48
-31 73 -7 12 10 40 21 64 24 l42 5 0 -44 0 -44 448 0 c335 0 451 3 460 12 9 9
12 9 12 0 0 -7 9 -12 20 -12 15 0 20 7 20 26 0 20 -4 25 -16 20 -12 -5 -15 -2
-10 10 3 8 6 20 6 25 0 6 7 6 19 0 15 -9 20 -7 24 10 9 34 42 7 57 -46 11 -40
16 -45 41 -45 18 0 29 6 32 18 4 16 5 16 6 0 2 -26 26 -22 41 7 9 16 23 25 39
26 17 1 20 3 9 6 -10 2 -18 9 -18 14 0 23 35 2 36 -21 2 -60 14 -68 34 -20 16
38 29 38 43 0 l11 -30 808 0 c756 0 807 1 811 18 4 16 5 16 6 0 1 -15 11 -18
66 -18 36 0 65 3 65 7 0 3 -29 35 -65 70 -35 34 -63 68 -60 75 2 7 9 32 15 56
l11 43 29 -30 c15 -17 33 -31 39 -31 6 0 29 -20 52 -45 23 -25 45 -45 50 -45
5 0 9 71 9 158 l0 159 -25 11 c-27 12 -36 48 -10 38 26 -9 16 10 -10 22 -14 7
-27 12 -29 12 -8 0 8 -56 18 -62 14 -9 6 -16 -26 -20 -36 -5 -47 -17 -25 -29
9 -6 17 -15 17 -20 0 -6 -4 -7 -10 -4 -5 3 -10 -1 -10 -9 0 -9 -6 -13 -14 -10
-8 3 -16 -2 -19 -13 -3 -12 -5 -10 -6 8 -1 33 38 152 90 275 22 50 39 101 39
113 0 11 5 21 10 21 15 0 12 97 -3 104 -9 5 -9 7 0 12 20 9 16 36 -4 33 -10
-1 -41 20 -70 49 -51 50 -55 64 -10 40 26 -14 77 -18 77 -6 0 4 -5 8 -11 8 -5
0 -8 4 -5 9 4 5 -4 7 -16 5 -13 -2 -17 -2 -11 2 7 3 13 10 13 15 0 6 -3 8 -7
6 -5 -2 -18 9 -31 24 -20 24 -21 30 -9 35 20 7 47 12 75 13 l22 1 0 409 0 409
-25 6 c-14 4 -33 2 -43 -2 -21 -11 -42 -5 -42 13 0 7 -6 15 -12 18 -7 2 -10 8
-6 12 4 4 21 3 37 -3 22 -8 32 -8 37 0 4 7 2 8 -4 4 -7 -4 -12 -3 -12 3 0 15
30 29 51 24 18 -5 19 3 19 126 0 127 -1 131 -22 135 -67 14 -118 21 -157 21
-44 0 -45 -1 -53 -40 -28 -135 -41 -185 -50 -185 -6 0 -8 11 -4 28 4 15 9 47
11 72 3 25 8 55 10 68 4 15 1 22 -10 22 -8 0 -15 9 -15 19 0 22 -11 26 -85 36
-27 3 -57 8 -66 11 -13 4 -18 -10 -28 -71 -7 -41 -9 -85 -5 -97 6 -21 6 -21
-10 -5 -11 11 -29 15 -49 13 -45 -5 -62 3 -40 19 15 11 16 15 3 31 -9 11 -10
15 -2 10 6 -4 12 -2 12 3 0 6 -7 11 -15 11 -8 0 -15 5 -15 11 0 5 5 7 10 4 20
-12 48 5 43 25 -3 11 0 20 6 20 20 0 12 30 -15 55 -17 16 -39 25 -60 25 -76 0
-112 -44 -99 -121 6 -34 5 -41 -7 -36 -25 9 -41 -8 -34 -38 6 -22 9 -25 21
-15 8 7 15 20 16 29 0 13 1 14 6 1 8 -22 35 -50 58 -62 19 -11 19 -10 2 9 -17
19 -16 20 15 20 18 0 27 -2 20 -5 -10 -3 -8 -8 5 -18 17 -13 17 -13 1 -14 -10
0 -18 -4 -18 -10 0 -5 6 -7 13 -5 6 3 25 -15 41 -41 25 -39 32 -45 55 -40 l26
6 -25 -14 c-19 -11 -27 -11 -32 -3 -6 9 -8 9 -8 0 0 -6 7 -18 15 -25 61 -55
74 -59 136 -43 29 8 57 11 61 7 10 -10 -107 -33 -142 -28 -14 2 -35 4 -46 5
-13 0 -24 10 -27 21 -3 12 -14 20 -26 20 -12 0 -21 4 -21 8 0 11 -46 32 -70
32 -11 0 -24 10 -31 21 -8 15 -8 19 0 15 6 -4 11 -2 11 3 0 6 -5 11 -11 11 -6
0 -9 7 -5 15 3 8 2 14 -2 13 -4 -1 -17 3 -29 10 -16 9 -23 9 -23 2 0 -6 -4 -8
-10 -5 -5 3 -10 -3 -10 -14 0 -11 4 -23 10 -26 6 -3 10 -16 10 -28 0 -23 -37
-47 -72 -47 -10 0 -43 -16 -73 -36 -31 -19 -61 -33 -68 -31 -7 3 1 10 17 16
16 6 27 14 24 16 -7 7 -114 -43 -128 -59 -6 -8 -12 -27 -13 -42 -2 -25 -7 -29
-45 -36 -51 -9 -85 -34 -147 -110 -45 -57 -71 -79 -41 -36 9 12 16 35 16 50 0
15 12 64 26 109 20 65 24 87 15 106 -13 27 -28 28 -134 8 -107 -20 -127 -20
-127 4 0 11 5 23 10 26 18 11 40 63 34 80 -4 10 -14 15 -26 12 -25 -7 -36 24
-32 88 6 75 5 98 -5 104 -4 3 -11 23 -15 43 -10 56 -50 98 -92 98 -47 0 -100
-24 -115 -51 -12 -23 -13 -22 -26 24 -8 26 -28 61 -47 79 -32 32 -54 91 -55
148 0 30 -34 60 -68 60 -28 0 -70 -42 -75 -73 -3 -20 -10 -22 -65 -25 -41 -2
-63 -7 -63 -15 0 -7 -4 -6 -10 3 -8 12 -10 12 -10 1 0 -11 -3 -11 -15 -1 -23
19 -314 27 -327 9 -7 -11 -11 -11 -15 -1 -6 16 -40 16 -46 0 -4 -10 -6 -10 -6
0 -1 6 -7 12 -15 12 -8 0 -15 16 -19 40 -3 23 -13 52 -22 66 -13 21 -23 25
-53 22 -31 -3 -40 -9 -59 -43 l-23 -40 0 184 0 184 371 -5 c305 -3 372 -7 379
-18 11 -18 24 -6 17 15 -6 13 -37 15 -219 16 -117 1 -221 1 -230 0 -10 -1 -18
1 -18 6 0 4 -72 7 -160 5 -93 -2 -160 -7 -160 -12 0 -6 -8 -10 -17 -10 -13 0
-14 -3 -5 -12 14 -14 16 -32 3 -24 -9 6 -7 -91 2 -100 2 -3 7 2 10 11 4 8 2
15 -3 15 -6 0 -10 5 -10 11 0 6 5 9 12 7 15 -5 24 -333 10 -342 -16 -10 14
-79 46 -106 16 -14 36 -45 44 -69 16 -46 28 -38 28 19 0 27 2 28 39 23 l39 -5
-5 46 -6 46 52 0 c32 0 50 -4 46 -10 -3 -5 -2 -10 4 -10 5 0 12 6 14 13 4 10
6 10 6 0 1 -17 28 -16 34 1 7 17 58 9 73 -13 11 -14 15 -14 40 -1 15 8 29 23
32 32 5 19 62 22 62 3 0 -6 7 -12 15 -12 8 0 15 6 15 14 0 18 29 17 36 -2 7
-17 54 -21 54 -5 0 6 20 10 45 10 25 0 45 -3 45 -8 0 -4 -22 -17 -48 -29 -55
-25 -74 -56 -93 -152 -13 -60 -24 -72 -47 -49 -9 9 -18 6 -38 -13 -15 -13 -24
-19 -21 -12 4 6 3 23 -2 36 l-10 25 -195 2 -196 1 -1 -53 c-1 -29 -1 -57 0
-62 1 -4 -6 -28 -15 -52 -14 -37 -21 -44 -43 -44 -34 0 -74 28 -67 47 3 8 2
12 -2 9 -5 -3 -9 8 -9 24 0 16 4 27 9 24 4 -3 3 6 -3 20 -9 18 -9 36 -1 66 5
22 7 53 3 67 -6 23 -9 20 -19 -29 -7 -31 -10 -67 -7 -81 6 -24 4 -26 -24 -25
-40 1 -43 -2 -30 -41 6 -17 8 -38 5 -47 -3 -8 -2 -13 3 -10 5 3 11 -1 15 -9 3
-8 12 -12 20 -9 8 3 19 -3 25 -15 15 -27 14 -31 -9 -31 -11 0 -20 5 -20 11 0
6 -6 9 -12 7 -7 -3 -19 1 -26 9 -18 18 -47 16 -66 -3 -21 -21 -20 -42 4 -89
28 -56 35 -101 17 -108 -10 -4 -17 2 -21 17 -8 32 -44 76 -71 86 -25 9 -131
13 -182 6 -36 -4 -39 0 -21 38 8 20 16 24 34 20 18 -5 22 -1 22 18 0 13 3 43
6 66 6 40 3 47 -25 73 -45 42 -100 54 -144 33 -43 -20 -65 -49 -65 -86 0 -17
-10 -37 -27 -52 -24 -22 -29 -24 -43 -11 -8 7 -36 23 -62 34 -27 11 -48 27
-48 35 0 12 -7 13 -36 4 -20 -5 -42 -7 -50 -4 -7 3 -16 1 -19 -4 -4 -6 -18
-10 -32 -10 -34 0 -79 -34 -88 -67 l-8 -28 -8 28 c-9 32 5 73 28 81 8 3 11 1
8 -4 -3 -5 0 -8 7 -5 19 8 37 55 33 90 -6 54 -23 108 -37 116 -18 11 -34 -7
-21 -23 6 -7 13 -43 15 -80 4 -52 3 -65 -7 -61 -7 2 -27 -3 -44 -11 -16 -9
-32 -16 -35 -16 -3 0 -4 22 -3 49 1 27 4 48 7 46 3 -2 6 5 6 15 0 19 -1 19
-21 0 -12 -11 -29 -20 -38 -20 -9 0 -17 -7 -17 -15 0 -8 7 -15 15 -15 10 0 15
-11 15 -35 0 -49 -27 -47 -36 3 -4 20 -7 45 -6 55 0 9 -3 15 -9 12 -5 -4 -9
-14 -9 -23 -1 -15 -2 -15 -15 2 -20 26 -18 56 4 83 15 18 25 21 54 16 27 -4
39 -1 56 16 25 25 26 33 4 29 -14 -2 -20 10 -30 65 -21 115 -47 146 -127 149
-27 1 -36 6 -39 22 -4 20 -4 20 -6 1 0 -11 -15 -28 -32 -38 -29 -16 -31 -20
-24 -55 10 -56 9 -102 -5 -159 -7 -29 -9 -60 -5 -70 5 -10 7 -22 6 -26 -1 -4
11 -24 25 -43 15 -19 24 -37 21 -40 -3 -3 -12 7 -20 23 -8 15 -24 37 -36 47
-11 10 -18 23 -15 28 3 5 3 30 -1 56 -6 36 -9 42 -15 27 -4 -11 -3 -21 1 -23
5 -2 9 -16 9 -30 0 -26 -1 -26 -18 8 -10 19 -15 40 -10 46 4 6 -1 20 -13 32
-11 12 -15 22 -9 22 5 0 10 7 10 15 0 8 4 15 9 15 12 0 53 66 50 82 -4 31 2
46 22 51 12 3 18 10 14 16 -3 6 1 11 9 11 19 0 21 16 4 23 -7 3 -3 6 10 6 22
1 32 21 10 21 -9 0 -9 3 0 12 7 7 12 17 12 22 0 6 -4 5 -9 -3 -12 -19 -6 72 6
94 9 16 11 15 15 -6 2 -14 5 -53 7 -89 1 -36 7 -69 12 -75 7 -7 8 26 3 98 -4
70 -3 107 4 107 5 0 23 14 40 31 19 19 35 28 43 24 9 -6 11 0 6 26 -9 57 -11
64 -27 71 -12 5 -12 7 3 7 11 1 17 9 17 26 0 21 -4 24 -27 19 -16 -2 -35 0
-43 5 -13 9 -13 14 -2 32 11 18 11 20 0 17 -7 -3 -15 -24 -18 -49 l-6 -44 -8
65 c-8 67 -7 87 7 83 4 -2 7 0 7 5 0 4 35 4 78 0 42 -3 88 -7 102 -8 23 -1 24
-2 8 -14 -10 -7 -18 -18 -18 -25 0 -6 -15 -11 -32 -11 l-33 -1 37 -19 c34 -19
74 -18 63 0 -7 11 32 23 45 15 5 -3 10 -2 10 3 0 13 65 25 113 23 20 -2 37 2
37 8 0 5 24 11 52 13 40 2 54 7 56 20 3 16 -19 17 -277 18 l-281 0 1 -77 c0
-43 4 -103 7 -133 8 -65 5 -100 -10 -100 -6 0 -8 8 -5 19 2 10 0 26 -5 35 -6
10 -5 16 2 16 10 0 7 64 -5 130 -3 14 -6 44 -7 68 l-1 42 -84 0 c-73 0 -83 -2
-83 -18z m257 -204 c-3 -8 -6 -5 -6 6 -1 11 2 17 5 13 3 -3 4 -12 1 -19z
m1343 -313 c16 -19 5 -32 -13 -17 -8 7 -17 9 -20 5 -4 -3 -7 1 -7 10 0 21 23
22 40 2z m749 -53 c6 -19 8 -39 5 -43 -2 -5 1 -17 8 -28 10 -17 10 -23 -1 -33
-11 -11 -12 -9 -9 7 5 26 -32 55 -72 58 -17 1 -30 8 -30 15 0 9 6 10 18 5 26
-12 65 -10 69 5 3 6 -2 12 -9 12 -8 0 -23 7 -34 15 -15 12 -16 16 -5 24 24 16
50 0 60 -37z m-779 18 c31 0 50 -11 50 -29 0 -43 -56 -56 -79 -18 -13 19 -12
21 1 10 8 -7 19 -9 23 -5 5 4 5 1 1 -5 -10 -18 19 -17 33 1 13 15 -4 26 -39
26 -19 0 -33 23 -22 35 4 3 8 1 10 -4 2 -6 12 -11 22 -11z m-1470 -65 c0 -8
-8 -11 -19 -8 -11 3 -17 11 -14 18 6 17 33 8 33 -10z m135 3 c14 -12 25 -29
25 -38 0 -9 6 -22 12 -28 10 -10 10 -15 -2 -22 -23 -15 -55 -8 -54 12 1 13 -3
15 -22 8 -26 -10 -30 -4 -14 20 9 13 10 13 10 0 1 -11 7 -8 21 9 22 27 12 41
-28 36 -18 -2 -21 0 -12 11 16 20 35 17 64 -8z m-375 -90 c0 -25 20 -22 20 3
0 11 4 18 10 14 5 -3 7 -12 3 -20 -9 -24 13 -17 25 8 11 21 11 20 9 -8 -3 -35
-22 -73 -32 -63 -4 4 -15 -2 -24 -13 -14 -17 -19 -19 -28 -8 -11 14 -17 68
-14 118 1 24 1 24 16 5 8 -10 15 -27 15 -36z m440 31 c0 -6 -4 -7 -10 -4 -5 3
-10 11 -10 16 0 6 5 7 10 4 6 -3 10 -11 10 -16z m1265 11 c-4 -6 -2 -16 3 -23
6 -7 10 -29 9 -50 -1 -34 -2 -37 -14 -21 -15 21 -17 34 -3 34 6 0 6 9 0 26
-13 33 -13 44 1 44 5 0 7 -5 4 -10z m738 -7 c-7 -2 -19 -2 -25 0 -7 3 -2 5 12
5 14 0 19 -2 13 -5z m-10 -47 c16 2 16 1 0 -28 -10 -16 -25 -35 -33 -41 -12
-9 -13 -8 -3 2 6 8 9 29 6 50 -2 20 -1 31 4 25 4 -6 16 -10 26 -8z m-2526 -63
c-3 -10 -5 -4 -5 12 0 17 2 24 5 18 2 -7 2 -21 0 -30z m2477 22 c-5 -12 -10
-13 -20 -4 -19 15 -18 19 6 19 13 0 18 -5 14 -15z m86 -1 c0 -8 -4 -12 -10 -9
-5 3 -10 10 -10 16 0 5 5 9 10 9 6 0 10 -7 10 -16z m-87 -74 c-3 -12 -8 -19
-11 -16 -5 6 5 36 12 36 2 0 2 -9 -1 -20z m85 -3 c2 -9 -2 -17 -8 -17 -6 0 -8
5 -4 12 4 7 3 8 -4 4 -7 -4 -17 -4 -23 0 -8 4 -7 9 2 15 19 12 33 6 37 -14z
m-63 -7 c3 -5 1 -10 -4 -10 -6 0 -11 5 -11 10 0 6 2 10 4 10 3 0 8 -4 11 -10z
m-2079 -25 c-5 -20 -3 -24 11 -22 10 1 23 6 29 10 13 8 29 -56 19 -73 -3 -6
-1 -10 4 -10 21 0 11 -18 -13 -22 -19 -4 -25 0 -29 18 -3 16 2 24 16 28 23 6
13 26 -13 26 -25 0 -60 30 -59 50 0 10 2 11 6 3 7 -18 23 -16 23 2 0 8 3 15 6
15 3 0 3 -11 0 -25z m1574 -16 c0 -5 -7 -9 -15 -9 -15 0 -20 12 -9 23 8 8 24
-1 24 -14z m553 -3 c3 -8 0 -19 -7 -25 -10 -8 -12 -5 -10 12 4 33 8 37 17 13z
m-631 -13 c-6 -2 -10 -9 -6 -14 3 -5 0 -9 -5 -9 -12 0 -14 13 -4 23 3 4 11 7
17 6 6 0 5 -3 -2 -6z m565 -7 c-13 -10 -15 -16 -7 -21 9 -6 9 -10 -1 -16 -23
-15 -29 -10 -29 21 0 26 4 30 28 30 25 -1 26 -2 9 -14z m-457 -45 c-1 -13 -3
-13 -15 3 -19 26 -19 42 0 26 8 -7 15 -20 15 -29z m2330 35 c0 -2 2 -11 5 -18
4 -10 -2 -14 -22 -14 -22 1 -28 -4 -33 -29 -8 -36 -29 -77 -30 -56 0 8 8 38
17 68 14 44 21 53 40 53 13 0 23 -2 23 -4z m-1770 -21 c0 -8 -8 -15 -17 -15
-14 0 -13 -4 6 -21 25 -24 21 -39 -6 -18 -9 8 -14 9 -10 3 4 -7 0 -15 -9 -18
-19 -7 -37 2 -28 15 3 5 10 6 16 3 8 -5 9 -1 4 11 -4 11 0 25 10 36 21 23 34
24 34 4z m-930 -24 c0 -4 -6 -8 -14 -8 -8 0 -12 6 -9 14 5 13 23 9 23 -6z
m774 3 c3 -8 2 -12 -4 -9 -6 3 -10 10 -10 16 0 14 7 11 14 -7z m1973 10 c-3
-3 -12 -4 -19 -1 -8 3 -5 6 6 6 11 1 17 -2 13 -5z m-3977 -61 c0 -19 -17 -16
-24 5 -3 9 -9 24 -12 32 -5 10 0 9 15 -4 11 -11 21 -25 21 -33z m1805 28 c3
-5 1 -12 -4 -15 -5 -3 -11 1 -15 9 -6 16 9 21 19 6z m1595 -1 c0 -5 -2 -10 -4
-10 -3 0 -8 5 -11 10 -3 6 -1 10 4 10 6 0 11 -4 11 -10z m-2172 -26 c0 -17 -4
-22 -11 -15 -5 5 -7 17 -4 25 9 23 15 19 15 -10z m282 20 c0 -3 -5 -15 -12
-27 -10 -20 -10 -21 6 -8 14 12 16 12 10 -3 -7 -18 -7 -18 -28 -10 -12 5 -13
10 -4 30 10 21 28 33 28 18z m174 -9 c3 -8 1 -15 -4 -15 -6 0 -10 7 -10 15 0
8 2 15 4 15 2 0 6 -7 10 -15z m357 -15 c5 0 9 -4 9 -10 0 -5 -7 -7 -15 -4 -8
4 -14 16 -14 28 1 16 2 17 6 4 2 -10 9 -18 14 -18z m319 -2 c0 -4 -12 -20 -26
-35 -14 -15 -22 -21 -18 -13 4 8 7 29 6 47 -3 31 -1 33 18 21 11 -7 20 -16 20
-20z m-522 -3 c-3 -3 -9 2 -12 12 -6 14 -5 15 5 6 7 -7 10 -15 7 -18z m52 0
c19 -36 7 -40 -14 -5 -9 17 -13 30 -8 30 5 0 15 -11 22 -25z m-1835 5 c-3 -5
-12 -10 -18 -10 -7 0 -6 4 3 10 19 12 23 12 15 0z m145 -15 c0 -8 -6 -15 -14
-15 -7 0 -19 -7 -26 -15 -7 -9 -15 -13 -19 -10 -3 3 8 17 24 30 36 29 35 29
35 10z m1941 -38 c-8 -8 -11 -7 -11 4 0 20 13 34 18 19 3 -7 -1 -17 -7 -23z
m-2081 14 c0 -6 -4 -13 -10 -16 -5 -3 -10 1 -10 9 0 9 5 16 10 16 6 0 10 -4
10 -9z m18 -16 c-5 -22 -3 -25 16 -19 11 4 24 12 28 18 5 8 8 7 8 -2 0 -7 -8
-15 -17 -19 -10 -3 -27 -14 -39 -25 -12 -10 -39 -21 -60 -23 l-39 -5 35 13
c47 16 62 26 55 38 -7 10 3 49 12 49 3 0 3 -11 1 -25z m2016 9 c3 -8 2 -12 -4
-9 -6 3 -10 1 -10 -5 0 -7 -5 -6 -14 2 -12 11 -11 14 3 20 9 4 17 7 17 7 1 1
5 -6 8 -15z m-471 -14 c4 -16 0 -20 -19 -20 -13 0 -24 5 -24 11 0 6 7 9 15 5
9 -3 15 0 15 9 0 21 7 18 13 -5z m1717 -11 c0 -6 -4 -7 -10 -4 -5 3 -10 11
-10 16 0 6 5 7 10 4 6 -3 10 -11 10 -16z m554 13 c3 -5 -1 -9 -9 -9 -8 0 -15
4 -15 9 0 4 4 8 9 8 6 0 12 -4 15 -8z m-1939 -12 c-3 -5 1 -25 9 -45 8 -19 11
-35 5 -35 -11 0 -29 43 -29 71 0 10 5 19 11 19 5 0 8 -4 4 -10z m1740 -10 c13
7 29 10 37 8 7 -3 -6 -11 -29 -18 -24 -7 -49 -9 -60 -5 -21 9 -29 12 -43 14
-5 0 -10 5 -10 11 0 5 18 3 41 -6 33 -14 44 -14 64 -4z m282 -2 c-3 -8 -6 -5
-6 6 -1 11 2 17 5 13 3 -3 4 -12 1 -19z m-2457 6 c0 -13 -42 -74 -51 -74 -13
0 -11 9 12 46 18 30 39 45 39 28z m556 -4 c19 -7 34 -22 41 -40 12 -33 51 -54
70 -38 9 7 15 5 19 -6 5 -13 9 -14 20 -5 9 7 14 8 14 1 0 -18 -28 -21 -82 -6
-29 7 -64 14 -78 14 -30 0 -55 26 -62 63 -6 30 8 34 58 17z m87 -9 c3 -14 1
-18 -9 -14 -15 6 -18 16 -7 26 9 10 10 9 16 -12z m-358 -1 c-3 -5 -12 -10 -18
-10 -7 0 -6 4 3 10 19 12 23 12 15 0z m-274 -17 c-12 -23 -43 -61 -39 -48 10
29 32 65 40 65 5 0 4 -8 -1 -17z m40 -16 c-10 -9 -11 -8 -5 6 3 10 9 15 12 12
3 -3 0 -11 -7 -18z m-1333 -16 c3 -10 0 -12 -12 -8 -10 4 -26 7 -37 7 -10 0
-19 6 -19 14 0 18 62 6 68 -13z m1085 14 c9 -4 26 -5 36 -2 15 3 18 1 14 -11
-4 -10 -2 -13 5 -8 7 4 18 4 25 -1 6 -4 16 -8 22 -8 15 0 18 -35 3 -35 -10 0
-9 -3 2 -10 12 -8 10 -10 -9 -8 -13 2 -26 -3 -29 -11 -3 -8 0 -11 7 -7 7 5 9
1 4 -10 -5 -13 -3 -16 10 -11 11 4 17 1 17 -8 0 -9 -6 -12 -15 -9 -8 4 -15 1
-15 -5 0 -7 6 -14 13 -17 9 -3 12 -17 8 -47 -6 -39 -8 -42 -36 -39 -17 1 -65
3 -108 5 -55 2 -83 8 -97 20 -27 23 -25 37 4 37 24 0 52 35 83 104 13 28 9 51
-6 41 -5 -2 -13 6 -19 20 -9 20 -8 24 6 28 22 5 52 2 75 -8z m104 -9 c-8 -10
-14 -11 -19 -3 -4 6 -2 15 5 19 17 11 28 -1 14 -16z m2293 -7 c0 -14 -35 -19
-79 -13 -36 5 -41 9 -26 14 24 9 105 8 105 -1z m-2146 -38 c9 -12 8 -12 -11
-1 -13 8 -19 20 -15 29 5 13 6 13 10 0 3 -7 10 -20 16 -28z m26 14 c0 -8 -2
-15 -4 -15 -2 0 -6 7 -10 15 -3 8 -1 15 4 15 6 0 10 -7 10 -15z m-1440 -5 c0
-5 -4 -10 -10 -10 -5 0 -10 5 -10 10 0 6 5 10 10 10 6 0 10 -4 10 -10z m1683
4 c-7 -3 -10 -11 -7 -19 3 -7 0 -16 -7 -21 -9 -5 -10 -2 -6 9 4 10 1 17 -6 17
-8 0 -6 4 3 10 8 5 20 9 25 9 6 0 5 -3 -2 -5z m-1600 -44 c5 -19 13 -51 18
-70 6 -21 6 -80 2 -145 -7 -99 -10 -110 -26 -107 -15 3 -18 -1 -12 -20 6 -23
6 -23 -14 2 -11 14 -18 31 -16 38 3 7 0 22 -5 32 -7 12 -7 27 0 45 5 14 6 24
1 21 -5 -3 -8 21 -7 53 1 48 -2 57 -14 53 -13 -5 -13 -3 -2 10 14 18 0 34 -19
22 -7 -4 -10 -1 -7 7 3 8 18 17 34 20 l29 7 -30 2 c-16 2 -36 3 -42 3 -7 -1
-13 6 -13 14 0 8 4 12 9 8 5 -3 12 -1 15 4 3 5 15 7 26 4 15 -4 20 0 20 17 0
16 5 21 22 18 16 -2 25 -13 31 -38z m403 -6 c-8 -20 -38 -18 -34 4 2 9 8 22
13 28 13 15 29 -10 21 -32z m1480 32 c27 -8 66 -17 86 -20 23 -4 42 -15 48
-26 8 -15 8 -20 -3 -20 -7 0 -18 5 -23 10 -6 6 -27 13 -48 15 -33 4 -36 3 -27
-13 6 -9 33 -41 61 -71 27 -29 47 -57 44 -63 -3 -5 -14 -2 -25 8 -10 9 -16 21
-13 25 3 5 1 9 -3 9 -5 0 -26 17 -47 38 -21 20 -43 38 -47 38 -5 1 -24 2 -41
3 -23 1 -29 4 -19 10 7 5 22 6 32 4 21 -6 26 12 7 21 -7 4 -3 4 8 2 12 -2 27
0 33 4 12 7 -22 12 -86 13 -21 0 -33 6 -33 14 0 17 34 17 96 -1z m-438 -19
c12 -1 22 -6 22 -11 0 -5 -17 -6 -37 -2 -21 3 -46 6 -55 6 -10 0 -18 4 -18 8
0 5 15 6 33 4 17 -2 42 -4 55 -5z m79 -24 c-3 -10 -5 -4 -5 12 0 17 2 24 5 18
2 -7 2 -21 0 -30z m534 7 c10 -6 19 -18 19 -28 0 -10 -3 -13 -8 -6 -4 6 -15
13 -24 17 -10 3 -18 11 -18 17 0 13 6 13 31 0z m-819 -15 c1 -49 -15 -127 -28
-132 -8 -3 -17 -3 -20 0 -9 8 27 148 38 145 5 -2 10 -8 10 -13z m2258 -17 c0
-13 -5 -30 -10 -38 -8 -13 -10 -12 -10 3 0 11 -12 22 -31 29 -36 12 -23 28 24
28 21 0 27 -5 27 -22z m-635 2 c3 -5 -1 -10 -9 -10 -9 0 -16 5 -16 10 0 6 4
10 9 10 6 0 13 -4 16 -10z m914 -50 c0 -13 -1 -13 -8 0 -5 8 -12 26 -15 40
l-7 25 15 -25 c9 -14 15 -32 15 -40z m-3909 41 c0 -16 -28 -20 -34 -5 -4 9 1
14 14 14 11 0 20 -4 20 -9z m1393 -33 c-7 -67 -13 -88 -23 -88 -6 0 -8 12 -4
28 24 108 35 132 27 60z m559 25 c10 -9 18 -21 18 -27 0 -6 -7 0 -17 13 -15
23 -17 23 -30 6 -12 -18 -13 -18 -13 3 0 26 16 28 42 5z m-492 -18 c0 -8 -4
-15 -10 -15 -5 0 -7 7 -4 15 4 8 8 15 10 15 2 0 4 -7 4 -15z m2065 5 c3 -5 2
-10 -4 -10 -5 0 -13 5 -16 10 -3 6 -2 10 4 10 5 0 13 -4 16 -10z m-2940 -109
c-5 -24 -65 -96 -65 -79 0 3 -18 2 -41 -2 -40 -8 -41 -7 -36 19 3 14 9 34 12
43 6 15 2 17 -26 13 l-34 -5 35 11 c19 6 55 31 80 55 l44 44 19 -36 c12 -23
16 -46 12 -63z m2385 79 c0 -5 -10 -10 -22 -10 -19 0 -20 2 -8 10 19 13 30 13
30 0z m-1518 -50 c3 -16 1 -30 -4 -30 -4 0 -8 14 -8 30 0 17 2 30 4 30 2 0 6
-13 8 -30z m104 -16 c1 -40 16 -54 57 -54 15 0 27 -4 27 -9 0 -9 -50 -7 -115
4 -11 2 -24 4 -28 4 -5 1 -5 6 -2 11 4 6 16 10 28 8 19 -3 21 1 18 42 -1 25 1
41 5 37 5 -4 9 -24 10 -43z m1439 36 c-11 -5 -14 -9 -7 -9 6 -1 12 -5 12 -11
0 -15 -22 -12 -47 8 -23 17 -23 17 20 19 31 2 37 0 22 -7z m925 -11 c0 -5 -4
-9 -10 -9 -5 0 -10 7 -10 16 0 8 5 12 10 9 6 -3 10 -10 10 -16z m-3590 1 c13
-8 13 -10 -2 -10 -9 0 -20 5 -23 10 -8 13 5 13 25 0z m1157 -4 c0 -8 -6 -12
-14 -9 -7 3 -10 9 -7 14 8 14 21 11 21 -5z m543 -16 c6 -11 8 -20 6 -20 -3 0
-10 9 -16 20 -6 11 -8 20 -6 20 3 0 10 -9 16 -20z m-210 -10 c0 -4 -6 -10 -14
-13 -10 -4 -12 0 -9 14 5 18 23 18 23 -1z m-750 2 c0 -4 -9 -8 -20 -9 -11 -1
-18 2 -15 8 7 11 35 12 35 1z m2850 -2 c0 -5 -4 -10 -10 -10 -5 0 -10 5 -10
10 0 6 5 10 10 10 6 0 10 -4 10 -10z m-2812 -26 c-3 -8 -28 -14 -61 -15 -10 0
-21 -7 -24 -15 -7 -18 -20 -18 -20 1 0 14 53 39 66 31 4 -3 13 -1 21 4 15 10
24 7 18 -6z m556 1 c-4 -8 -10 -15 -15 -15 -5 0 -9 7 -9 15 0 8 7 15 15 15 9
0 12 -6 9 -15z m-1286 -2 c-10 -2 -28 -2 -40 0 -13 2 -5 4 17 4 22 1 32 -1 23
-4z m-133 -13 c3 -5 2 -10 -4 -10 -5 0 -13 5 -16 10 -3 6 -2 10 4 10 5 0 13
-4 16 -10z m3647 -4 c6 4 9 1 7 -5 -3 -7 -8 -12 -12 -12 -4 1 -14 1 -22 1 -13
0 -14 2 -3 14 7 8 15 10 16 5 2 -5 8 -6 14 -3z m-3513 -22 c9 -8 -85 -2 -104
6 -12 5 4 6 40 3 33 -3 62 -7 64 -9z m2651 -28 c0 -5 -7 -3 -15 4 -8 7 -12 17
-9 22 7 10 24 -9 24 -26z m243 -3 c-4 -10 -13 -24 -20 -31 -7 -7 -13 -19 -13
-27 0 -7 -3 -22 -6 -32 -6 -15 -4 -16 7 -5 16 14 33 16 24 2 -10 -16 11 -12
25 5 10 12 10 15 -3 15 -11 0 -14 6 -11 15 4 11 13 13 28 9 28 -9 28 -9 30
-38 0 -14 4 -26 9 -26 4 0 7 -4 7 -8 0 -4 -13 -9 -30 -10 -17 -1 -30 3 -30 9
0 8 -4 8 -15 -1 -11 -9 -15 -9 -15 -1 0 7 -3 10 -8 7 -7 -4 -38 14 -40 24 -3
20 -18 47 -31 57 -9 6 -12 15 -7 20 5 4 11 2 13 -4 7 -18 32 -16 40 3 5 12 25
26 50 33 1 1 -1 -7 -4 -16z m387 -12 c25 -11 24 -11 -5 -8 -25 2 -31 -2 -33
-21 -2 -13 2 -30 9 -39 17 -20 12 -75 -9 -90 -14 -11 -13 -13 10 -13 23 0 26
-3 22 -27 -3 -15 -7 -30 -10 -35 -3 -4 -7 -16 -9 -27 -3 -16 5 -20 57 -25 33
-4 59 -9 57 -11 -5 -5 -68 -17 -104 -20 -42 -4 -65 -15 -65 -31 0 -8 -4 -14
-10 -14 -18 0 -10 29 12 44 12 9 17 16 11 16 -8 0 -8 9 0 36 9 29 8 40 -8 66
-11 19 -14 33 -8 35 37 13 43 28 34 82 -8 54 4 125 18 102 4 -5 18 -15 31 -20z
m-3400 -27 c0 -2 -9 0 -20 6 -11 6 -24 9 -29 6 -4 -3 -8 1 -8 9 0 12 5 12 29
-1 15 -8 28 -17 28 -20z m250 26 c0 -5 -12 -10 -27 -9 -25 0 -26 1 -8 9 27 12
35 12 35 0z m503 -20 c4 -17 14 -20 65 -20 71 0 93 7 85 26 -3 9 2 14 16 14
12 0 24 -7 27 -15 4 -8 11 -12 16 -9 6 4 8 -4 4 -22 -12 -62 -35 -200 -38
-229 -2 -16 -7 -30 -13 -31 -5 0 -25 -4 -43 -8 -28 -7 -32 -11 -26 -29 6 -19
5 -20 -8 -10 -8 7 -18 10 -21 6 -4 -3 -7 -1 -7 5 0 5 6 13 13 15 12 6 -38 0
-81 -9 -17 -3 -21 -1 -16 7 5 9 2 10 -9 6 -9 -3 -19 -2 -22 3 -4 6 -19 10 -36
10 -16 0 -29 5 -29 12 0 6 -7 3 -15 -8 -8 -11 -14 -14 -15 -6 0 9 -6 10 -17 4
-10 -4 -24 -7 -30 -6 -7 1 -28 2 -45 3 -25 1 -29 4 -18 11 11 7 4 10 -26 10
-58 0 -129 46 -131 86 -1 19 1 23 5 12 12 -30 61 -77 84 -82 13 -3 51 -7 85
-9 l61 -3 57 95 c32 53 58 107 59 121 4 58 57 97 69 50z m673 -9 c0 -14 4 -33
7 -41 9 -19 -40 -73 -58 -66 -8 3 -16 0 -18 -7 -3 -7 -5 5 -4 25 0 20 6 39 13
42 7 3 16 21 19 40 8 42 40 47 41 7z m54 9 c0 -5 9 -10 19 -10 16 0 38 -27 29
-35 -12 -9 -49 -25 -60 -25 -20 0 -40 50 -27 67 13 15 39 17 39 3z m-445 -72
c-5 -40 -10 -93 -11 -118 -2 -25 -3 -45 -4 -45 -1 0 -3 -10 -4 -22 -2 -13 -6
-26 -9 -30 -17 -17 -18 15 -3 119 9 62 16 125 16 141 0 15 5 27 11 27 9 0 10
-20 4 -72z m2191 22 c9 0 14 -11 14 -35 0 -47 -17 -44 -30 5 -6 21 -16 42 -22
46 -8 5 -9 2 -5 -9 4 -10 10 -24 13 -32 3 -8 1 -15 -5 -15 -14 0 -14 -37 0
-46 6 -3 9 -14 6 -24 -2 -10 4 -25 14 -34 17 -14 26 -36 14 -36 -35 0 -89 72
-61 84 8 3 8 5 -1 5 -6 1 -15 -3 -18 -9 -3 -5 -13 -10 -22 -10 -8 0 -28 -9
-44 -21 -16 -11 -41 -23 -56 -25 l-27 -5 24 19 c14 11 45 29 69 41 41 21 43
25 38 56 -4 25 -1 35 10 40 9 3 20 0 25 -7 7 -10 8 -9 5 2 -2 8 0 23 5 33 9
18 10 18 24 -2 9 -12 22 -21 30 -21z m-2966 20 c0 -5 -5 -10 -11 -10 -5 0 -7
5 -4 10 3 6 8 10 11 10 2 0 4 -4 4 -10z m-910 -10 c0 -5 -19 -9 -42 -9 l-43 2
35 7 c19 4 38 8 43 9 4 0 7 -3 7 -9z m1767 -52 c-2 -13 -4 -5 -4 17 -1 22 1
32 4 23 2 -10 2 -28 0 -40z m936 -78 c56 -87 83 -120 97 -120 11 0 20 -4 20
-10 0 -6 26 -10 58 -10 58 0 102 18 102 43 0 7 7 20 14 30 13 17 16 14 42 -32
15 -28 30 -51 33 -52 3 0 15 -2 26 -4 11 -2 33 3 49 11 38 18 41 18 43 -7 2
-16 -1 -19 -9 -11 -11 11 -58 -4 -58 -19 0 -5 -14 -7 -31 -5 -22 3 -29 0 -25
-10 4 -10 -11 -13 -62 -12 -93 1 -104 -1 -97 -12 3 -5 -1 -10 -9 -10 -9 0 -16
-4 -16 -10 0 -5 -5 -10 -12 -10 -6 0 -8 3 -5 7 9 8 -12 33 -27 33 -6 0 -4 -5
4 -10 9 -6 10 -10 3 -10 -6 0 -15 5 -18 10 -4 6 -11 8 -16 5 -5 -4 -9 -2 -9 3
0 6 -18 34 -40 63 -24 32 -41 66 -41 84 -1 25 -3 26 -6 7 -4 -22 -6 -23 -23
-7 -10 9 -17 22 -14 28 2 7 -19 38 -46 70 -51 59 -55 68 -43 80 20 21 44 -3
116 -113z m-723 83 c0 -20 -17 -50 -23 -43 -3 3 -8 16 -12 29 -6 20 -4 23 9
18 9 -4 16 -2 16 3 0 6 2 10 5 10 3 0 5 -8 5 -17z m516 0 c16 -21 18 -37 4
-28 -13 8 -33 45 -24 45 4 0 13 -8 20 -17z m-286 -8 c0 -9 7 -18 15 -21 11 -5
15 -22 15 -63 l0 -56 -23 35 c-18 28 -27 34 -49 32 -16 -2 -28 2 -28 8 0 6 -4
9 -10 5 -5 -3 -16 8 -24 24 l-15 29 47 10 c67 14 72 14 72 -3z m2005 -19 c1
-14 -2 -29 -7 -32 -4 -3 -8 -25 -8 -50 0 -47 -12 -57 -30 -24 -6 11 -17 20
-25 20 -8 0 -15 9 -15 20 0 14 7 20 24 20 21 0 25 6 31 41 8 44 28 48 30 5z
m-3910 14 c-3 -5 -14 -10 -23 -10 -15 0 -15 2 -2 10 20 13 33 13 25 0z m3975
2 c0 -4 -4 -12 -9 -17 -5 -6 -12 -29 -16 -52 -6 -35 -3 -45 17 -65 31 -31 32
-58 2 -58 -12 0 -26 -4 -29 -10 -3 -5 0 -10 7 -10 8 0 14 -9 14 -19 0 -16 -3
-17 -14 -9 -18 15 -38 53 -23 44 14 -9 14 7 0 21 -8 8 -7 25 4 62 10 34 11 51
4 54 -16 5 12 67 29 67 8 0 14 -4 14 -8z m-2370 -46 c0 -3 -4 -8 -10 -11 -5
-3 -10 -1 -10 4 0 6 5 11 10 11 6 0 10 -2 10 -4z m88 -21 c10 -10 -61 5 -72
15 -5 5 8 5 29 0 20 -4 40 -11 43 -15z m2297 5 c3 -5 2 -10 -4 -10 -5 0 -13 5
-16 10 -3 6 -2 10 4 10 5 0 13 -4 16 -10z m-3885 -14 c0 -11 -19 -15 -25 -6
-3 5 1 10 9 10 9 0 16 -2 16 -4z m1380 -6 c8 -5 11 -10 5 -10 -5 0 -17 5 -25
10 -8 5 -10 10 -5 10 6 0 17 -5 25 -10z m-1320 -5 c0 -2 -10 -10 -22 -16 -21
-11 -22 -11 -9 4 13 16 31 23 31 12z m1440 -5 c0 -5 -4 -10 -10 -10 -5 0 -10
5 -10 10 0 6 5 10 10 10 6 0 10 -4 10 -10z m1070 -4 c0 -7 -11 -16 -25 -18
-16 -4 -25 -1 -25 8 0 7 10 15 23 17 12 2 23 5 25 6 1 0 2 -5 2 -13z m-2560
-20 c0 -20 -27 -40 -33 -24 -2 7 -2 19 1 26 6 16 32 15 32 -2z m1347 -18 c-3
-7 -5 -2 -5 12 0 14 2 19 5 13 2 -7 2 -19 0 -25z m37 16 c3 -8 2 -12 -4 -9 -6
3 -10 10 -10 16 0 14 7 11 14 -7z m239 -19 c-3 -9 -8 -14 -10 -11 -3 3 -2 9 2
15 9 16 15 13 8 -4z m-1975 -12 c-10 -2 -28 -2 -40 0 -13 2 -5 4 17 4 22 1 32
-1 23 -4z m289 -17 c-3 -6 -10 -10 -16 -8 -6 1 -11 -2 -11 -8 0 -5 10 -10 22
-10 20 0 20 -1 4 -19 -12 -13 -14 -21 -6 -26 6 -4 9 -14 6 -22 -3 -8 1 -21 9
-29 23 -23 18 -37 -7 -20 -28 20 -38 20 -38 2 0 -12 -61 -33 -82 -28 -12 3
-57 -47 -60 -66 -2 -12 5 -18 27 -20 16 -2 32 -7 35 -11 3 -4 42 -16 88 -26
45 -10 82 -21 82 -25 0 -4 -78 -18 -172 -30 -95 -13 -183 -30 -195 -37 -23
-15 -24 -39 -2 -55 11 -8 10 -8 -5 -4 -20 7 -76 -37 -76 -60 0 -6 -7 -15 -16
-18 -15 -6 -15 -4 1 20 14 22 15 28 4 35 -11 6 -11 11 -1 21 16 16 16 41 0 35
-7 -2 -12 -12 -10 -22 3 -14 -1 -16 -17 -12 -12 3 -24 1 -27 -4 -6 -10 -126
-12 -161 -3 -31 9 -33 64 -3 64 12 0 25 10 32 25 6 14 23 28 37 31 14 3 31 7
38 9 6 2 14 -1 17 -8 3 -7 16 1 33 21 21 25 33 31 47 26 13 -5 17 -4 12 4 -3
6 -2 13 4 17 6 4 8 10 5 15 -3 5 3 11 13 14 10 3 23 20 29 37 7 17 16 28 22
25 5 -4 13 0 18 7 9 16 57 30 67 20 3 -4 24 -8 45 -10 31 -3 42 1 54 18 18 25
12 49 -12 50 -12 0 -11 2 4 8 11 5 22 4 23 0 2 -5 8 -9 14 -9 6 0 7 7 4 16 -3
8 -2 12 3 9 5 -3 12 -1 15 4 3 4 19 11 34 14 23 5 31 13 35 36 5 23 11 29 22
25 9 -4 14 -12 12 -18z m1573 -49 c3 -2 24 -7 47 -11 34 -5 42 -3 46 11 3 12
5 9 6 -8 l1 -25 -87 4 c-86 4 -113 13 -113 36 0 8 13 11 35 8 34 -4 35 -3 36
29 l1 34 12 -37 c6 -20 13 -38 16 -41z m1560 49 c0 -2 -8 -10 -17 -17 -16 -13
-17 -12 -4 4 13 16 21 21 21 13z m-1424 -45 c-2 -3 2 -15 10 -26 8 -10 14 -15
15 -9 1 20 18 -33 18 -59 1 -19 -3 -27 -11 -24 -7 2 -21 -2 -30 -11 -17 -14
-18 -12 -18 35 0 28 -3 65 -6 82 -6 26 -4 30 10 25 9 -3 14 -9 12 -13z m1384
10 c0 -5 -9 -13 -20 -16 -11 -4 -18 -11 -15 -16 3 -5 -2 -6 -11 -2 -13 5 -15
3 -9 -7 5 -8 4 -11 -2 -7 -5 3 -26 -5 -46 -18 -20 -14 -42 -25 -49 -25 -14 0
12 19 91 67 61 37 61 37 61 24z m724 -5 c-4 -10 3 -16 22 -18 18 -2 32 -13 44
-35 9 -18 20 -29 24 -25 4 4 2 -5 -4 -20 -7 -14 -21 -29 -31 -31 -11 -3 -19
-12 -19 -21 0 -9 -8 -16 -18 -16 -11 0 -27 -8 -36 -19 -16 -18 -15 -19 20 -25
31 -6 35 -10 30 -29 -3 -12 -6 -32 -6 -44 0 -22 -2 -21 -57 14 -32 20 -92 52
-133 70 -41 18 -75 37 -74 43 2 24 5 28 25 33 17 4 20 11 16 36 -4 24 -1 34
14 41 10 6 19 16 19 22 0 7 -5 6 -15 -2 -9 -7 -15 -8 -15 -2 0 14 24 22 68 23
20 1 48 5 62 9 42 14 70 12 64 -4z m-4014 -22 c0 -2 -9 0 -20 6 -11 6 -20 13
-20 16 0 2 9 0 20 -6 11 -6 20 -13 20 -16z m1275 -34 c10 -11 14 -20 8 -20 -5
0 -18 9 -28 20 -10 11 -14 20 -8 20 5 0 18 -9 28 -20z m115 5 c0 -8 -4 -15
-10 -15 -5 0 -10 7 -10 15 0 8 5 15 10 15 6 0 10 -7 10 -15z m-181 -17 c10
-18 11 -20 0 -10 -7 6 -24 12 -38 13 -24 0 -24 1 -6 9 29 12 29 12 44 -12z
m111 15 c0 -10 -20 -40 -20 -31 0 3 -3 13 -6 22 -4 11 -1 16 10 16 9 0 16 -3
16 -7z m660 -42 c-1 -39 -12 -29 -24 21 -5 22 -3 26 9 22 10 -4 15 -19 15 -43z
m1313 42 c3 -5 -6 -9 -20 -10 -19 -1 -22 1 -12 8 17 11 26 11 32 2z m-3589
-18 c-4 -8 -8 -15 -10 -15 -2 0 -4 7 -4 15 0 8 4 15 10 15 5 0 7 -7 4 -15z
m1196 -23 c0 -8 -6 -12 -14 -9 -11 4 -13 1 -10 -11 5 -14 4 -15 -5 -2 -17 23
-13 39 9 37 11 -1 20 -8 20 -15z m2204 -41 c-3 -3 -11 -6 -17 -6 -7 0 -11 -8
-9 -18 3 -17 -9 -23 -21 -10 -10 9 20 40 38 40 8 0 12 -3 9 -6z m1023 -18 c-3
-3 -11 -2 -17 2 -9 6 -9 10 1 16 14 8 27 -7 16 -18z m-4357 -3 c0 -5 -5 -10
-11 -10 -5 0 -7 5 -4 10 3 6 8 10 11 10 2 0 4 -4 4 -10z m2974 -22 l19 -33
-32 29 c-35 33 -36 36 -18 36 7 0 21 -15 31 -32z m-1523 11 c11 -6 17 -15 12
-22 -4 -7 1 -5 11 3 17 13 17 12 3 -22 l-15 -36 35 -7 c28 -5 32 -9 23 -20 -7
-8 -9 -19 -5 -25 9 -14 -8 -13 -40 4 -30 16 -68 11 -43 -5 11 -8 11 -11 -1
-18 -8 -5 -20 -7 -27 -4 -6 2 -15 0 -19 -6 -9 -15 -56 -14 -52 2 1 8 -19 14
-63 18 -88 9 -140 20 -140 30 0 5 -3 8 -7 8 -27 -4 -63 3 -58 11 3 6 -3 10
-14 10 -11 0 -23 5 -26 10 -3 6 -14 10 -24 10 -10 0 -25 8 -32 17 -8 9 -9 14
-3 10 7 -4 83 -25 170 -47 148 -37 240 -48 278 -34 37 14 11 24 -66 25 -46 1
-75 3 -65 6 9 2 17 14 17 26 0 36 13 46 64 51 26 2 50 7 53 10 8 8 11 8 34 -5z
m2883 -34 c-6 -16 -34 -21 -34 -7 0 13 11 22 26 22 8 0 11 -6 8 -15z m56 5 c0
-5 -5 -10 -11 -10 -5 0 -7 5 -4 10 3 6 8 10 11 10 2 0 4 -4 4 -10z m-1341 -26
c3 -16 1 -17 -13 -5 -19 16 -21 34 -3 29 6 -3 14 -13 16 -24z m-946 -1 c-20
-7 -15 -27 10 -51 19 -18 33 -22 79 -20 32 2 54 -1 50 -6 -3 -5 2 -7 11 -3 13
5 21 -7 38 -63 15 -49 26 -71 41 -76 11 -3 26 -21 34 -40 13 -30 13 -40 0 -77
-8 -23 -15 -37 -16 -32 0 6 -14 11 -30 12 -22 2 -34 -4 -46 -22 -9 -14 -23
-25 -31 -25 -13 0 -13 -3 -2 -17 7 -10 9 -14 4 -10 -5 4 -19 -9 -32 -30 -23
-38 -32 -39 -13 -2 7 11 7 19 1 19 -5 0 -12 -6 -15 -12 -4 -9 -5 -8 -4 2 2 24
-14 133 -24 160 -6 16 -12 20 -17 12 -5 -9 -17 -9 -46 -1 -27 8 -34 13 -25 19
8 5 18 6 24 3 5 -3 6 -1 2 5 -4 6 -13 9 -21 5 -13 -4 -15 11 -15 93 -1 71 -5
104 -15 118 -20 26 -19 36 3 36 16 0 19 -9 21 -52 2 -70 11 -75 11 -6 0 55 5
69 24 67 6 0 5 -3 -1 -6z m1123 -56 c-4 -15 -2 -17 7 -8 17 17 31 13 17 -4 -7
-9 -21 -13 -31 -10 -12 4 -22 -1 -29 -15 -6 -11 -18 -20 -27 -20 -14 0 -14 3
1 25 9 14 14 30 11 35 -3 4 3 10 12 12 37 8 45 5 39 -15z m-1586 -11 c0 -8 -4
-18 -10 -21 -5 -3 -10 3 -10 14 0 12 5 21 10 21 6 0 10 -6 10 -14z m404 -38
c3 -29 6 -75 6 -101 l0 -49 -32 7 c-68 14 -70 15 -65 45 3 15 9 50 13 78 6 51
29 76 46 50 6 -10 8 -8 8 5 0 39 18 13 24 -35z m-558 -3 c10 -8 14 -15 8 -15
-5 0 -19 7 -30 15 -10 8 -14 15 -8 15 5 0 19 -7 30 -15z m1392 -10 c-3 -3 -9
2 -12 12 -6 14 -5 15 5 6 7 -7 10 -15 7 -18z m48 -87 c13 -27 21 -48 16 -48
-4 0 -20 25 -35 55 -45 93 -31 87 19 -7z m-2766 32 c0 -5 -4 -10 -10 -10 -5 0
-10 5 -10 10 0 6 5 10 10 10 6 0 10 -4 10 -10z m283 -15 c-14 -10 -32 -13 -49
-9 -34 9 -12 24 36 24 34 0 34 0 13 -15z m2627 -39 c0 -6 -7 -1 -15 10 -8 10
-15 23 -15 28 0 6 7 1 15 -10 8 -10 15 -23 15 -28z m559 17 l33 -16 -6 -91
c-9 -125 -10 -127 -53 -123 -20 1 -38 8 -41 16 -3 8 0 11 7 7 6 -4 19 -3 28 3
22 12 11 16 -59 26 -67 9 -70 25 -6 25 60 0 74 7 73 35 0 11 4 25 8 32 10 14
-7 19 -93 27 -52 5 -99 29 -108 54 -11 33 150 36 217 5z m-3666 -8 c1 -6 -15
-11 -35 -13 -43 -4 -52 15 -10 21 35 5 43 4 45 -8z m3180 -55 c22 -36 6 -41
-17 -5 -18 27 -20 35 -8 35 4 0 16 -13 25 -30z m22 20 c3 -5 1 -10 -4 -10 -6
0 -11 5 -11 10 0 6 2 10 4 10 3 0 8 -4 11 -10z m-3022 -66 c31 -9 57 -20 57
-23 0 -9 -290 -55 -298 -47 -2 3 9 18 26 34 16 16 37 41 46 55 17 25 18 25 64
11 26 -8 73 -21 105 -30z m2510 11 c-10 -13 -27 -25 -38 -25 -15 0 -12 5 15
25 44 30 45 30 23 0z m-2798 -51 c25 -16 24 -44 -1 -44 -8 0 -14 -4 -14 -10 0
-5 -6 -9 -12 -7 -7 1 -14 -8 -16 -20 -2 -13 -6 -23 -10 -23 -13 0 -33 40 -26
51 4 8 9 7 15 -2 5 -9 10 -4 14 17 14 62 14 62 50 38z m1725 -28 c0 -8 -4 -17
-9 -21 -12 -7 -24 12 -16 25 9 15 25 12 25 -4z m1848 -2 c15 -16 18 -47 13
-124 l-2 -25 -24 30 c-25 30 -31 67 -19 113 8 26 10 27 32 6z m-60 -23 c3 -8
-1 -12 -9 -9 -7 2 -15 10 -17 17 -3 8 1 12 9 9 7 -2 15 -10 17 -17z m257 -59
c7 -5 8 -46 2 -127 -13 -190 -22 -200 -31 -33 -8 163 -4 184 29 160z m-3788
-8 c-3 -3 -12 -4 -19 -1 -8 3 -5 6 6 6 11 1 17 -2 13 -5z m403 -31 c1 -16 7
-45 14 -65 8 -21 12 -38 10 -38 -1 0 -56 19 -121 42 l-118 42 100 22 c55 12
103 23 108 23 4 1 7 -11 7 -26z m3195 -53 c3 -5 1 -10 -4 -10 -6 0 -11 5 -11
10 0 6 2 10 4 10 3 0 8 -4 11 -10z m-1933 -110 c-5 -13 -11 -19 -14 -14 -3 5
-1 20 4 34 13 31 22 12 10 -20z m2888 -60 c13 -8 13 -10 -2 -10 -9 0 -20 5
-23 10 -8 13 5 13 25 0z m-4316 -15 c-4 -9 0 -15 10 -15 9 0 16 5 16 10 0 12
40 13 58 1 17 -10 -4 -28 -47 -41 -24 -7 -31 -5 -31 5 0 8 -8 19 -17 24 -16 9
-16 12 -3 21 20 13 20 13 14 -5z m3662 -120 c-2 -5 -9 -9 -15 -7 -16 3 4 -35
21 -41 7 -2 2 -4 -12 -4 -19 0 -32 9 -48 34 -13 18 -20 39 -16 45 4 6 3 8 -3
5 -13 -8 -28 10 -36 41 -6 26 8 29 22 5 6 -10 11 -13 11 -6 0 6 -9 18 -20 26
-11 8 -17 17 -13 21 9 9 113 -105 109 -119z m-3681 85 c3 -6 -1 -7 -9 -4 -18
7 -21 14 -7 14 6 0 13 -4 16 -10z m-28 -42 c-6 -4 -15 -2 -20 5 -5 7 -6 0 -2
-16 3 -16 2 -27 -2 -24 -4 3 -37 -10 -73 -27 -67 -33 -66 -31 -69 -102 -1 -12
-8 -25 -17 -28 -28 -11 -13 91 16 111 18 12 19 17 9 25 -10 7 -8 8 9 5 15 -4
22 0 22 10 0 9 6 12 19 8 12 -3 21 0 25 10 3 9 10 14 15 10 6 -3 13 1 18 8 13
23 47 37 55 24 4 -6 2 -15 -5 -19z m3744 -65 c13 -16 12 -17 -3 -4 -17 13 -22
21 -14 21 2 0 10 -8 17 -17z m-2291 -7 c0 -3 -4 -8 -10 -11 -5 -3 -10 -1 -10
4 0 6 5 11 10 11 6 0 10 -2 10 -4z m-1710 -88 c0 -50 -29 -55 -32 -5 0 17 -2
39 -3 47 -3 27 8 34 22 15 7 -11 13 -36 13 -57z m4037 42 c14 -11 21 -20 15
-20 -12 0 -60 39 -49 40 5 0 20 -9 34 -20z m-54 -3 c-2 -4 1 -14 7 -22 20 -24
6 -17 -18 8 -20 21 -20 23 -2 23 10 0 16 -4 13 -9z m-3853 -17 c0 -5 -5 -10
-11 -10 -5 0 -7 5 -4 10 3 6 8 10 11 10 2 0 4 -4 4 -10z m2470 -30 c-7 -16
-16 -30 -20 -30 -5 0 -6 -10 -3 -22 4 -22 4 -23 -11 -4 -23 28 -20 45 11 72
33 28 40 24 23 -16z m1340 30 c0 -23 -80 -26 -88 -2 -2 8 10 12 42 12 25 0 46
-4 46 -10z m-1850 -57 c-14 -28 -14 -28 -18 -5 -5 34 6 58 20 44 9 -9 8 -18
-2 -39z m1975 37 c3 -6 -1 -7 -9 -4 -18 7 -21 14 -7 14 6 0 13 -4 16 -10z m0
-48 c-3 -3 -11 0 -18 7 -9 10 -8 11 6 5 10 -3 15 -9 12 -12z"/>
<path d="M1987 1929 c-14 -8 -16 -14 -6 -25 18 -22 39 -17 39 11 0 27 -6 30
-33 14z"/>
<path d="M4433 1343 c9 -2 23 -2 30 0 6 3 -1 5 -18 5 -16 0 -22 -2 -12 -5z"/>
<path d="M2410 1530 c0 -5 5 -10 11 -10 5 0 7 5 4 10 -3 6 -8 10 -11 10 -2 0
-4 -4 -4 -10z"/>
<path d="M4084 1434 c-18 -14 -18 -15 4 -4 12 6 22 13 22 15 0 8 -5 6 -26 -11z"/>
<path d="M3266 1244 c-5 -14 -4 -15 9 -4 17 14 19 20 6 20 -5 0 -12 -7 -15
-16z"/>
<path d="M4630 1360 c0 -5 4 -10 9 -10 6 0 13 5 16 10 3 6 -1 10 -9 10 -9 0
-16 -4 -16 -10z"/>
<path d="M4426 1139 c6 -11 41 -12 47 -1 3 4 -8 7 -24 8 -15 1 -26 -3 -23 -7z"/>
<path d="M1710 1016 c0 -2 7 -7 16 -10 8 -3 12 -2 9 4 -6 10 -25 14 -25 6z"/>
<path d="M144 715 c-9 -21 -2 -26 13 -10 8 9 9 16 3 20 -6 3 -13 -1 -16 -10z"/>
<path d="M3990 276 c0 -2 7 -7 16 -10 8 -3 12 -2 9 4 -6 10 -25 14 -25 6z"/>
<path d="M4007 233 c3 -7 8 -13 12 -13 8 0 37 19 31 21 -33 6 -47 4 -43 -8z"/>
<path d="M2675 109 c-4 -6 -5 -12 -2 -15 2 -3 7 2 10 11 7 17 1 20 -8 4z"/>
<path d="M1745 3134 c2 -24 19 -43 38 -44 15 0 6 19 -10 23 -11 3 -7 5 10 6
20 1 27 -4 27 -17 0 -37 78 -44 528 -49 l422 -4 0 55 0 56 -509 0 -509 0 3
-26z"/>
<path d="M3810 3141 c0 -10 10 -31 21 -46 18 -22 20 -32 12 -58 -6 -19 -6 -44
-1 -62 5 -16 7 -68 5 -115 -3 -58 -2 -74 4 -50 8 34 6 -57 -6 -340 -6 -159 1
-118 15 80 6 91 18 235 26 320 8 85 14 158 14 162 0 3 96 8 213 11 l212 4 185
47 c101 26 189 51 194 56 7 7 -150 10 -442 10 -434 0 -452 -1 -452 -19z m57
-238 c-3 -10 -5 -4 -5 12 0 17 2 24 5 18 2 -7 2 -21 0 -30z"/>
<path d="M1695 3130 c3 -5 10 -10 16 -10 5 0 9 5 9 10 0 6 -7 10 -16 10 -8 0
-12 -4 -9 -10z"/>
<path d="M4568 3072 c-151 -36 -212 -58 -138 -50 23 2 34 -1 33 -9 -2 -8 7 -9
33 -1 20 5 59 8 88 7 28 -2 75 -2 104 -1 l52 2 0 45 c0 25 -3 45 -7 44 -5 0
-79 -17 -165 -37z"/>
<path d="M780 3064 c0 -8 5 -12 10 -9 6 3 10 10 10 16 0 5 -4 9 -10 9 -5 0
-10 -7 -10 -16z"/>
<path d="M4653 2994 c-5 -13 -22 -15 -101 -13 -54 2 -97 -1 -99 -6 -3 -10 276
-9 286 0 2 3 -14 5 -37 5 -33 0 -40 3 -36 15 4 8 3 15 0 15 -4 0 -9 -7 -13
-16z"/>
<path d="M845 2990 c3 -5 10 -10 16 -10 5 0 9 5 9 10 0 6 -7 10 -16 10 -8 0
-12 -4 -9 -10z"/>
<path d="M150 2970 c0 -5 7 -10 15 -10 8 0 15 5 15 10 0 6 -7 10 -15 10 -8 0
-15 -4 -15 -10z"/>
<path d="M4560 2940 c0 -5 9 -10 20 -10 11 0 20 5 20 10 0 6 -9 10 -20 10 -11
0 -20 -4 -20 -10z"/>
<path d="M2732 2900 c0 -14 2 -19 5 -12 2 6 2 18 0 25 -3 6 -5 1 -5 -13z"/>
<path d="M2724 2720 c0 -69 1 -97 3 -62 2 34 2 90 0 125 -2 34 -3 6 -3 -63z"/>
<path d="M4632 2765 c0 -16 2 -22 5 -12 2 9 2 23 0 30 -3 6 -5 -1 -5 -18z"/>
<path d="M2472 2736 c1 -14 5 -24 8 -23 3 1 6 -2 7 -7 1 -5 7 -13 15 -17 9 -6
7 -9 -9 -9 -21 0 -23 -5 -23 -50 l0 -50 60 0 60 0 0 90 0 90 -60 0 c-57 0 -60
-1 -58 -24z m54 -5 c-3 -5 -15 -7 -26 -4 -28 7 -25 13 6 13 14 0 23 -4 20 -9z
m54 -71 c0 -5 -15 -10 -32 -11 -28 0 -30 -2 -13 -9 16 -7 11 -9 -20 -9 -35 0
-37 1 -20 11 19 11 19 11 0 19 -14 5 -3 8 33 8 28 1 52 -3 52 -9z"/>
<path d="M1936 2637 c3 -10 9 -15 12 -12 3 3 0 11 -7 18 -10 9 -11 8 -5 -6z"/>
<path d="M4697 2493 c-4 -3 -7 -17 -7 -30 0 -33 24 -24 28 10 3 26 -7 35 -21
20z"/>
<path d="M2456 2464 c-17 -12 -17 -14 -4 -14 9 0 20 5 23 11 11 17 2 18 -19 3z"/>
<path d="M1926 2421 c-4 -6 -2 -11 5 -11 8 0 8 -4 -1 -15 -11 -13 -10 -14 4
-9 18 7 19 13 7 33 -6 9 -11 10 -15 2z"/>
<path d="M3833 2285 c0 -33 2 -45 4 -27 2 18 2 45 0 60 -2 15 -4 0 -4 -33z"/>
<path d="M780 2310 c0 -5 7 -10 15 -10 8 0 15 5 15 10 0 6 -7 10 -15 10 -8 0
-15 -4 -15 -10z"/>
<path d="M850 2299 c0 -5 5 -7 10 -4 6 3 10 8 10 11 0 2 -4 4 -10 4 -5 0 -10
-5 -10 -11z"/>
<path d="M1575 2230 c3 -5 8 -10 11 -10 2 0 4 5 4 10 0 6 -5 10 -11 10 -5 0
-7 -4 -4 -10z"/>
<path d="M3819 2185 c-3 -5 -6 -30 -7 -55 -1 -39 0 -42 9 -20 10 25 9 93 -2
75z"/>
<path d="M1960 2150 c0 -5 12 -10 28 -9 24 0 25 1 7 9 -27 12 -35 12 -35 0z"/>
<path d="M1967 2109 c7 -7 15 -10 18 -7 3 3 -2 9 -12 12 -14 6 -15 5 -6 -5z"/>
<path d="M3808 2050 c-4 -14 -8 -43 -7 -65 0 -36 1 -38 10 -15 6 13 9 42 7 65
-3 35 -4 37 -10 15z"/>
<path d="M4150 2023 c0 -4 5 -15 10 -23 8 -13 10 -13 10 2 0 9 -4 20 -10 23
-5 3 -10 3 -10 -2z"/>
<path d="M4700 1980 c0 -5 5 -10 11 -10 5 0 7 5 4 10 -3 6 -8 10 -11 10 -2 0
-4 -4 -4 -10z"/>
<path d="M4640 456 c0 -8 4 -17 9 -20 5 -4 7 3 4 14 -6 23 -13 26 -13 6z"/>
<path d="M1103 390 c-18 -27 -17 -30 10 -30 13 0 52 -9 86 -21 88 -28 85 -19
-4 15 -41 16 -75 35 -77 42 -2 11 -6 9 -15 -6z"/>
<path d="M1636 357 c3 -10 9 -15 12 -12 3 3 0 11 -7 18 -10 9 -11 8 -5 -6z"/>
<path d="M1288 313 c7 -3 16 -2 19 1 4 3 -2 6 -13 5 -11 0 -14 -3 -6 -6z"/>
<path d="M1435 300 c-3 -5 -29 -8 -58 -6 -47 4 -49 3 -20 -6 35 -12 123 -2
123 13 0 12 -37 12 -45 -1z"/>
</g>
</svg>
